<svg width="18" height="18" viewBox="0 0 18 18" fill="none" xmlns="http://www.w3.org/2000/svg">
<path d="M6.57422 16.6286C8.4191 17.2128 10.413 17.1102 12.1882 16.3398" stroke="#292929" stroke-width="1.33333" stroke-linecap="round" stroke-linejoin="round"/>
<path d="M2.03516 12.9873C2.73903 14.2064 3.75139 15.2188 4.97048 15.9226" stroke="#292929" stroke-width="1.33333" stroke-linecap="round" stroke-linejoin="round"/>
<path d="M1.00001 8.1748V8.97681C0.998714 9.79299 1.12315 10.6045 1.36893 11.3828" stroke="#292929" stroke-width="1.33333" stroke-linecap="round" stroke-linejoin="round"/>
<path d="M2.56321 4.16504C2.01828 4.89134 1.60065 5.70491 1.32812 6.57104" stroke="#292929" stroke-width="1.33333" stroke-linecap="round" stroke-linejoin="round"/>
<path d="M5.77197 1.61426C5.20186 1.86536 4.66345 2.18302 4.16797 2.56062" stroke="#292929" stroke-width="1.33333" stroke-linecap="round" stroke-linejoin="round"/>
<path d="M13.7913 15.393C15.0831 14.4242 16.0523 13.088 16.5723 11.5592C17.0922 10.0305 17.1385 8.38037 16.7052 6.82484C16.272 5.26931 15.3792 3.88081 14.1438 2.841C12.9084 1.8012 11.3879 1.15852 9.78125 0.99707" stroke="#292929" stroke-width="1.33333" stroke-linecap="round" stroke-linejoin="round"/>
<path d="M8.98047 6.16992V11.7839" stroke="#292929" stroke-width="1.33333" stroke-miterlimit="10" stroke-linecap="round" stroke-linejoin="round"/>
<path d="M11.7859 8.97656H6.17188" stroke="#292929" stroke-width="1.33333" stroke-miterlimit="10" stroke-linecap="round" stroke-linejoin="round"/>
</svg>
