<svg width="16" height="16" viewBox="0 0 16 16" fill="none" xmlns="http://www.w3.org/2000/svg">
<path fill-rule="evenodd" clip-rule="evenodd" d="M4.70177 0.048C5.55511 0.00888726 5.82711 0 8 0C10.1733 0 10.4449 0.0093309 11.2977 0.048C12.1497 0.0866691 12.7316 0.222225 13.2404 0.42C13.7742 0.620953 14.2577 0.935811 14.6573 1.34267C15.0642 1.74225 15.3791 2.22579 15.58 2.75956C15.7777 3.26844 15.9129 3.85023 15.952 4.70177C15.9911 5.55511 16 5.82711 16 8C16 10.1729 15.9907 10.4449 15.952 11.2983C15.9133 12.1497 15.7777 12.7316 15.58 13.2404C15.3756 13.7663 15.1017 14.2129 14.6573 14.6573C14.2577 15.0642 13.7742 15.3791 13.2404 15.58C12.7316 15.7777 12.1497 15.9129 11.2983 15.952C10.4449 15.9911 10.1729 16 8 16C5.82711 16 5.55511 15.9907 4.70177 15.952C3.85023 15.9133 3.26844 15.7777 2.75956 15.58C2.23377 15.3756 1.78711 15.1017 1.34267 14.6573C0.935738 14.2577 0.620858 13.7742 0.42 13.2404C0.222225 12.7316 0.0871127 12.1497 0.048 11.2983C0.00888726 10.4449 0 10.1733 0 8C0 5.82667 0.0093309 5.55511 0.048 4.70223C0.0866691 3.85023 0.222225 3.26844 0.42 2.75956C0.620953 2.22583 0.935811 1.74231 1.34267 1.34267C1.74225 0.935738 2.22578 0.620858 2.75956 0.42C3.26844 0.222225 3.85023 0.0871127 4.70177 0.048ZM11.2329 1.488C10.3893 1.44977 10.136 1.44133 8 1.44133C5.864 1.44133 5.61067 1.44977 4.76711 1.488C3.98711 1.52356 3.56356 1.65377 3.28177 1.76356C2.90844 1.90844 2.64177 2.08177 2.36177 2.36177C2.08223 2.64177 1.90844 2.90844 1.76356 3.28177C1.65377 3.56356 1.52356 3.98711 1.488 4.76711C1.44977 5.61067 1.44133 5.864 1.44133 8C1.44133 10.136 1.44977 10.3893 1.488 11.2329C1.52356 12.0129 1.65377 12.4364 1.76356 12.7183C1.89172 13.0657 2.09614 13.3801 2.36177 13.6383C2.61988 13.9039 2.93426 14.1083 3.28177 14.2364C3.56356 14.3463 3.98711 14.4764 4.76711 14.512C5.61067 14.5503 5.86356 14.5587 8 14.5587C10.1364 14.5587 10.3893 14.5503 11.2329 14.512C12.0129 14.4764 12.4364 14.3463 12.7183 14.2364C13.0916 14.0916 13.3583 13.9183 13.6383 13.6383C13.9039 13.3801 14.1083 13.0657 14.2364 12.7183C14.3463 12.4364 14.4764 12.0129 14.512 11.2329C14.5503 10.3893 14.5587 10.136 14.5587 8C14.5587 5.864 14.5503 5.61067 14.512 4.76711C14.4764 3.98711 14.3463 3.56356 14.2364 3.28177C14.0916 2.90844 13.9183 2.64177 13.6383 2.36177C13.3583 2.08223 13.0916 1.90844 12.7183 1.76356C12.4364 1.65377 12.0129 1.52356 11.2329 1.488ZM6.97855 10.4661C7.3024 10.6003 7.64945 10.6693 8 10.6693C8.708 10.6693 9.38691 10.3881 9.88749 9.88749C10.3881 9.38691 10.6694 8.70793 10.6694 8C10.6694 7.29207 10.3881 6.61309 9.88749 6.11249C9.38691 5.6119 8.708 5.33066 8 5.33066C7.64945 5.33066 7.3024 5.39971 6.97855 5.53385C6.65462 5.668 6.36039 5.86462 6.11252 6.11249C5.86465 6.36036 5.66802 6.65462 5.53388 6.97847C5.39973 7.30233 5.33069 7.64945 5.33069 8C5.33069 8.35055 5.39973 8.69767 5.53388 9.02153C5.66802 9.34538 5.86465 9.63964 6.11252 9.88749C6.36039 10.1353 6.65462 10.332 6.97855 10.4661ZM5.0924 5.09237C5.86355 4.32122 6.90945 3.88799 8 3.88799C9.09062 3.88799 10.1365 4.32122 10.9076 5.09237C11.6788 5.86352 12.112 6.90945 12.112 8C12.112 9.09055 11.6788 10.1364 10.9076 10.9076C10.1365 11.6788 9.09062 12.112 8 12.112C6.90945 12.112 5.86355 11.6788 5.0924 10.9076C4.32125 10.1364 3.88802 9.09055 3.88802 8C3.88802 6.90945 4.32125 5.86352 5.0924 5.09237ZM13.0238 4.50064C13.206 4.31835 13.3084 4.07112 13.3084 3.81333C13.3084 3.55553 13.206 3.30831 13.0238 3.12602C12.8415 2.94374 12.5943 2.84133 12.3364 2.84133C12.0787 2.84133 11.8314 2.94374 11.6492 3.12602C11.4668 3.30831 11.3644 3.55553 11.3644 3.81333C11.3644 4.07112 11.4668 4.31835 11.6492 4.50064C11.8314 4.68292 12.0787 4.78533 12.3364 4.78533C12.5943 4.78533 12.8415 4.68292 13.0238 4.50064Z" fill="#DD5B19"/>
</svg>
