<svg width="16" height="18" viewBox="0 0 16 18" fill="none" xmlns="http://www.w3.org/2000/svg">
<path d="M8.374 0.514166C9.30191 0.5 10.2227 0.507083 11.1436 0.5C11.2002 1.58374 11.5898 2.68872 12.3831 3.45371C13.1765 4.23995 14.2956 4.6012 15.3864 4.72161V7.57616C14.3664 7.54074 13.3394 7.32825 12.4115 6.88909C12.0077 6.70492 11.6323 6.47118 11.264 6.23034C11.2569 8.29865 11.2711 10.367 11.2498 12.4282C11.1931 13.4198 10.8673 14.4044 10.2936 15.219C9.36566 16.579 7.75776 17.4644 6.10736 17.4927C5.09445 17.5494 4.08154 17.2731 3.21739 16.7631C1.78657 15.9202 0.780741 14.3761 0.631993 12.7186C0.617826 12.3644 0.610743 12.0103 0.624909 11.6632C0.752408 10.3174 1.41824 9.02823 2.45239 8.1499C3.62821 7.12992 5.27153 6.64117 6.8086 6.93159C6.82277 7.97991 6.78027 9.02823 6.78027 10.0765C6.07902 9.84988 5.25737 9.91363 4.64112 10.3386C4.19488 10.629 3.85488 11.0753 3.6778 11.5782C3.52905 11.9394 3.57155 12.3361 3.57863 12.7186C3.74863 13.8802 4.86779 14.8577 6.05778 14.7515C6.8511 14.7444 7.60901 14.284 8.01984 13.6111C8.15442 13.3773 8.30317 13.1365 8.31025 12.8603C8.38109 11.5924 8.35275 10.3315 8.35984 9.06364C8.36692 6.2091 8.35275 3.36163 8.374 0.514166Z" fill="#DD5B19"/>
</svg>
