<svg width="16" height="16" viewBox="0 0 16 16" fill="none" xmlns="http://www.w3.org/2000/svg">
<path d="M0 0H16V16H0V0Z" fill="white" fill-opacity="0.01"/>
<path d="M8.0026 14.6663C11.6845 14.6663 14.6693 11.6816 14.6693 7.99967C14.6693 4.31777 11.6845 1.33301 8.0026 1.33301C4.3207 1.33301 1.33594 4.31777 1.33594 7.99967C1.33594 11.6816 4.3207 14.6663 8.0026 14.6663Z" stroke="#231F20" stroke-width="1.33333"/>
<path d="M1.33594 6.94631C2.34089 6.47178 3.08416 6.40568 3.56574 6.74798C4.28814 7.26148 4.3787 9.35418 6.02177 8.35401C7.66484 7.35385 5.31817 6.94631 5.8276 5.49748C6.33704 4.04865 8.00537 5.17408 8.17124 3.58708C8.28177 2.52905 7.0162 2.12422 4.37447 2.37258" stroke="#231F20" stroke-width="1.33333"/>
<path d="M12.0017 2.66602C10.0969 4.32888 9.43167 5.33305 10.0059 5.67845C10.8673 6.19658 11.2328 5.46712 12.2839 5.67845C13.3351 5.88982 13.1075 7.31458 12.5546 7.31458C12.0017 7.31458 9.13837 6.94995 9.28261 8.62102C9.42681 10.292 11.1491 10.5394 11.1491 11.473C11.1491 12.0954 10.768 13.048 10.0059 14.3307" stroke="#231F20" stroke-width="1.33333" stroke-linecap="round"/>
<path d="M2.03906 10.9747C2.34289 10.8421 2.57128 10.745 2.72423 10.6832C4.00659 10.1651 4.95813 10.043 5.57876 10.3169C6.67626 10.8012 6.25433 11.7792 6.59809 12.1396C6.94183 12.4999 7.80023 12.3951 7.80023 13.0805C7.80023 13.5375 7.64673 14.0538 7.33973 14.6292" stroke="#231F20" stroke-width="1.33333" stroke-linecap="round"/>
</svg>
