<svg width="16" height="14" viewBox="0 0 16 14" fill="none" xmlns="http://www.w3.org/2000/svg">
<path d="M2.4 0.866211V11.3995C2.4 11.5763 2.32976 11.7459 2.20474 11.8709C2.07971 11.996 1.91014 12.0662 1.73333 12.0662C1.55652 12.0662 1.38695 11.996 1.26193 11.8709C1.1369 11.7459 1.06667 11.5763 1.06667 11.3995V3.53287H0V11.3995C0.000520526 11.8591 0.183306 12.2997 0.508256 12.6246C0.833207 12.9496 1.27378 13.1323 1.73333 13.1329H14.2667C14.7262 13.1323 15.1668 12.9496 15.4917 12.6246C15.8167 12.2997 15.9995 11.8591 16 11.3995V0.866211H2.4ZM14.9333 11.3995C14.9331 11.5763 14.8628 11.7457 14.7378 11.8707C14.6129 11.9957 14.4434 12.066 14.2667 12.0662H3.33333C3.42159 11.855 3.46691 11.6284 3.46667 11.3995V1.93288H14.9333V11.3995Z" fill="#DD5B19"/>
<path d="M9.33516 2.99902H4.53516V8.33235H9.33516V2.99902ZM8.26849 7.26569H5.60182V4.06569H8.26849V7.26569Z" fill="#DD5B19"/>
<path d="M13.8651 2.99902H10.3984V4.06569H13.8651V2.99902Z" fill="#DD5B19"/>
<path d="M13.8651 5.13281H10.3984V6.19948H13.8651V5.13281Z" fill="#DD5B19"/>
<path d="M13.8651 7.26562H10.3984V8.33229H13.8651V7.26562Z" fill="#DD5B19"/>
</svg>
