<!-- Generated by IcoMoon.io -->
<svg version="1.1" xmlns="http://www.w3.org/2000/svg" width="5773" height="1024" viewBox="0 0 5773 1024">
<g id="icomoon-ignore">
</g>
<path fill="#000" d="M3508.005 0c-409.587 0-716.827 182.867-716.827 512s307.173 512 716.827 512 718.291-182.867 718.291-512-308.704-512-718.291-512zM3508.005 877.733c-219.4 0-387.693-124.373-387.693-365.733s168.227-365.733 387.693-365.733 389.157 124.373 389.157 365.733-169.691 365.733-389.157 365.733z"></path>
<path fill="#000" d="M1922.229 583.669h693.403v-143.339h-693.403v-261.856h825.029v-143.339h-1151.235v953.795h1158.555v-143.405h-832.349v-261.856z"></path>
<path fill="#000" d="M686.083 440.331v143.339h421.299c0 109.733-102.413 294.064-389.157 294.064-219.4 0-389.157-117.053-389.157-365.733s169.691-365.733 389.157-365.733c131.627 0 250.144 46.781 323.277 144.803h337.917c-108.203-191.584-361.275-291.069-661.128-291.069-409.653 0-718.291 182.867-718.291 512s308.637 512 718.291 512 716.827-182.867 716.827-512c0-24.888-1.464-48.245-5.856-71.669h-743.179z"></path>
<path fill="#000" d="M5158.13 495.896l611.485-460.76h-416.973l-383.235 359.811-396.477-359.811h-430.083l618.805 473.936-621.733 479.859h416.973l399.339-356.949 386.229 356.949h430.083l-614.413-493.035z"></path>
</svg>
