<svg width="32" height="32" viewBox="0 0 32 32" fill="none" xmlns="http://www.w3.org/2000/svg">
<rect width="32" height="32" rx="16" fill="#FEF7EE"/>
<path d="M13.5742 23.6286C15.4191 24.2128 17.413 24.1102 19.1882 23.3398" stroke="#ED7D31" stroke-width="1.33333" stroke-linecap="round" stroke-linejoin="round"/>
<path d="M9.03516 19.9873C9.73903 21.2064 10.7514 22.2188 11.9705 22.9226" stroke="#ED7D31" stroke-width="1.33333" stroke-linecap="round" stroke-linejoin="round"/>
<path d="M8.00001 15.1753V15.9773C7.99871 16.7935 8.12315 17.605 8.36893 18.3833" stroke="#ED7D31" stroke-width="1.33333" stroke-linecap="round" stroke-linejoin="round"/>
<path d="M9.56321 11.1655C9.01828 11.8918 8.60065 12.7054 8.32812 13.5715" stroke="#ED7D31" stroke-width="1.33333" stroke-linecap="round" stroke-linejoin="round"/>
<path d="M12.772 8.61523C12.2019 8.86634 11.6635 9.184 11.168 9.5616" stroke="#ED7D31" stroke-width="1.33333" stroke-linecap="round" stroke-linejoin="round"/>
<path d="M20.7913 22.3935C22.0831 21.4247 23.0523 20.0885 23.5723 18.5597C24.0922 17.031 24.1385 15.3809 23.7052 13.8253C23.272 12.2698 22.3792 10.8813 21.1438 9.84149C19.9084 8.80168 18.3879 8.15901 16.7812 7.99756" stroke="#ED7D31" stroke-width="1.33333" stroke-linecap="round" stroke-linejoin="round"/>
<path d="M15.9805 13.1704V18.7844" stroke="#ED7D31" stroke-width="1.33333" stroke-miterlimit="10" stroke-linecap="round" stroke-linejoin="round"/>
<path d="M18.7859 15.9775H13.1719" stroke="#ED7D31" stroke-width="1.33333" stroke-miterlimit="10" stroke-linecap="round" stroke-linejoin="round"/>
</svg>
