<svg width="24" height="25" viewBox="0 0 24 25" fill="none" xmlns="http://www.w3.org/2000/svg">
<path d="M5.78091 20.1895H13.2175C13.782 20.1895 14.2262 19.7212 14.1137 19.168C13.8032 17.6407 12.7889 14.9395 9.49923 14.9395C6.20954 14.9395 5.19528 17.6407 4.88472 19.168C4.77223 19.7212 5.21641 20.1895 5.78091 20.1895Z" stroke="black" stroke-width="1.5" stroke-linecap="round" stroke-linejoin="round"/>
<path d="M15.75 14.9395C17.8288 14.9395 18.6802 17.0874 19.0239 18.6355C19.2095 19.4715 18.5333 20.1895 17.6769 20.1895H16.75" stroke="black" stroke-width="1.5" stroke-linecap="round" stroke-linejoin="round"/>
<path d="M9.5 11.1895C11.0188 11.1895 12.25 9.95824 12.25 8.43945C12.25 6.92067 11.0188 5.68945 9.5 5.68945C7.98122 5.68945 6.75 6.92067 6.75 8.43945C6.75 9.95824 7.98122 11.1895 9.5 11.1895Z" stroke="black" stroke-width="1.5" stroke-linecap="round" stroke-linejoin="round"/>
<path d="M14.75 11.1895C16.2688 11.1895 17.25 9.95823 17.25 8.43945C17.25 6.92067 16.2688 5.68945 14.75 5.68945" stroke="black" stroke-width="1.5" stroke-linecap="round" stroke-linejoin="round"/>
</svg>
