<svg width="40" height="40" viewBox="0 0 40 40" fill="none" xmlns="http://www.w3.org/2000/svg">
<rect width="40" height="40" rx="20" fill="white" fill-opacity="0.5"/>
<path fill-rule="evenodd" clip-rule="evenodd" d="M16.7018 12.048C17.5551 12.0089 17.8271 12 20 12C22.1733 12 22.4449 12.0093 23.2977 12.048C24.1497 12.0867 24.7316 12.2222 25.2404 12.42C25.7742 12.621 26.2577 12.9358 26.6573 13.3427C27.0642 13.7423 27.3791 14.2258 27.58 14.7596C27.7777 15.2684 27.9129 15.8502 27.952 16.7018C27.9911 17.5551 28 17.8271 28 20C28 22.1729 27.9907 22.4449 27.952 23.2983C27.9133 24.1497 27.7777 24.7316 27.58 25.2404C27.3756 25.7663 27.1017 26.2129 26.6573 26.6573C26.2577 27.0642 25.7742 27.3791 25.2404 27.58C24.7316 27.7777 24.1497 27.9129 23.2983 27.952C22.4449 27.9911 22.1729 28 20 28C17.8271 28 17.5551 27.9907 16.7018 27.952C15.8502 27.9133 15.2684 27.7777 14.7596 27.58C14.2338 27.3756 13.7871 27.1017 13.3427 26.6573C12.9357 26.2577 12.6209 25.7742 12.42 25.2404C12.2222 24.7316 12.0871 24.1497 12.048 23.2983C12.0089 22.4449 12 22.1733 12 20C12 17.8267 12.0093 17.5551 12.048 16.7022C12.0867 15.8502 12.2222 15.2684 12.42 14.7596C12.621 14.2258 12.9358 13.7423 13.3427 13.3427C13.7422 12.9357 14.2258 12.6209 14.7596 12.42C15.2684 12.2222 15.8502 12.0871 16.7018 12.048ZM23.2329 13.488C22.3893 13.4498 22.136 13.4413 20 13.4413C17.864 13.4413 17.6107 13.4498 16.7671 13.488C15.9871 13.5236 15.5636 13.6538 15.2818 13.7636C14.9084 13.9084 14.6418 14.0818 14.3618 14.3618C14.0822 14.6418 13.9084 14.9084 13.7636 15.2818C13.6538 15.5636 13.5236 15.9871 13.488 16.7671C13.4498 17.6107 13.4413 17.864 13.4413 20C13.4413 22.136 13.4498 22.3893 13.488 23.2329C13.5236 24.0129 13.6538 24.4364 13.7636 24.7183C13.8917 25.0657 14.0961 25.3801 14.3618 25.6383C14.6199 25.9039 14.9343 26.1083 15.2818 26.2364C15.5636 26.3463 15.9871 26.4764 16.7671 26.512C17.6107 26.5503 17.8636 26.5587 20 26.5587C22.1364 26.5587 22.3893 26.5503 23.2329 26.512C24.0129 26.4764 24.4364 26.3463 24.7183 26.2364C25.0916 26.0916 25.3583 25.9183 25.6383 25.6383C25.9039 25.3801 26.1083 25.0657 26.2364 24.7183C26.3463 24.4364 26.4764 24.0129 26.512 23.2329C26.5503 22.3893 26.5587 22.136 26.5587 20C26.5587 17.864 26.5503 17.6107 26.512 16.7671C26.4764 15.9871 26.3463 15.5636 26.2364 15.2818C26.0916 14.9084 25.9183 14.6418 25.6383 14.3618C25.3583 14.0822 25.0916 13.9084 24.7183 13.7636C24.4364 13.6538 24.0129 13.5236 23.2329 13.488ZM18.9785 22.4661C19.3024 22.6003 19.6495 22.6693 20 22.6693C20.708 22.6693 21.3869 22.3881 21.8875 21.8875C22.3881 21.3869 22.6694 20.7079 22.6694 20C22.6694 19.2921 22.3881 18.6131 21.8875 18.1125C21.3869 17.6119 20.708 17.3307 20 17.3307C19.6495 17.3307 19.3024 17.3997 18.9785 17.5339C18.6546 17.668 18.3604 17.8646 18.1125 18.1125C17.8646 18.3604 17.668 18.6546 17.5339 18.9785C17.3997 19.3023 17.3307 19.6495 17.3307 20C17.3307 20.3505 17.3997 20.6977 17.5339 21.0215C17.668 21.3454 17.8646 21.6396 18.1125 21.8875C18.3604 22.1353 18.6546 22.332 18.9785 22.4661ZM17.0924 17.0924C17.8635 16.3212 18.9095 15.888 20 15.888C21.0906 15.888 22.1365 16.3212 22.9076 17.0924C23.6788 17.8635 24.112 18.9095 24.112 20C24.112 21.0905 23.6788 22.1364 22.9076 22.9076C22.1365 23.6788 21.0906 24.112 20 24.112C18.9095 24.112 17.8635 23.6788 17.0924 22.9076C16.3213 22.1364 15.888 21.0905 15.888 20C15.888 18.9095 16.3213 17.8635 17.0924 17.0924ZM25.0238 16.5006C25.206 16.3183 25.3084 16.0711 25.3084 15.8133C25.3084 15.5555 25.206 15.3083 25.0238 15.126C24.8415 14.9437 24.5943 14.8413 24.3364 14.8413C24.0787 14.8413 23.8314 14.9437 23.6492 15.126C23.4668 15.3083 23.3644 15.5555 23.3644 15.8133C23.3644 16.0711 23.4668 16.3183 23.6492 16.5006C23.8314 16.6829 24.0787 16.7853 24.3364 16.7853C24.5943 16.7853 24.8415 16.6829 25.0238 16.5006Z" fill="#231F20"/>
</svg>
