<svg width="40" height="40" viewBox="0 0 40 40" fill="none" xmlns="http://www.w3.org/2000/svg">
<rect width="40" height="40" rx="20" fill="white" fill-opacity="0.5"/>
<path d="M12 12H28V28H12V12Z" fill="white" fill-opacity="0.01"/>
<path d="M20.0007 26.6663C23.6825 26.6663 26.6673 23.6816 26.6673 19.9997C26.6673 16.3178 23.6825 13.333 20.0007 13.333C16.3188 13.333 13.334 16.3178 13.334 19.9997C13.334 23.6816 16.3188 26.6663 20.0007 26.6663Z" stroke="#231F20" stroke-width="1.33333"/>
<path d="M13.334 18.9463C14.3389 18.4718 15.0822 18.4057 15.5638 18.748C16.2862 19.2615 16.3768 21.3542 18.0198 20.354C19.6629 19.3538 17.3162 18.9463 17.8257 17.4975C18.3351 16.0486 20.0034 17.1741 20.1693 15.5871C20.2798 14.5291 19.0143 14.1242 16.3725 14.3726" stroke="#231F20" stroke-width="1.33333"/>
<path d="M23.9998 14.666C22.095 16.3289 21.4297 17.333 22.004 17.6784C22.8654 18.1966 23.2309 17.4671 24.282 17.6784C25.3331 17.8898 25.1055 19.3146 24.5527 19.3146C23.9998 19.3146 21.1364 18.9499 21.2807 20.621C21.4249 22.292 23.1472 22.5394 23.1472 23.473C23.1472 24.0954 22.7661 25.048 22.004 26.3307" stroke="#231F20" stroke-width="1.33333" stroke-linecap="round"/>
<path d="M14.0352 22.9747C14.339 22.8421 14.5674 22.745 14.7203 22.6832C16.0027 22.1651 16.9542 22.043 17.5749 22.3169C18.6724 22.8012 18.2504 23.7792 18.5942 24.1396C18.9379 24.4999 19.7963 24.3951 19.7963 25.0805C19.7963 25.5375 19.6428 26.0538 19.3358 26.6292" stroke="#231F20" stroke-width="1.33333" stroke-linecap="round"/>
</svg>
