<svg width="40" height="40" viewBox="0 0 40 40" fill="none" xmlns="http://www.w3.org/2000/svg">
<rect width="40" height="40" rx="20" fill="white" fill-opacity="0.5"/>
<path d="M14.4 13.8662V24.3995C14.4 24.5763 14.3298 24.7459 14.2047 24.8709C14.0797 24.996 13.9101 25.0662 13.7333 25.0662C13.5565 25.0662 13.387 24.996 13.2619 24.8709C13.1369 24.7459 13.0667 24.5763 13.0667 24.3995V16.5329H12V24.3995C12.0005 24.8591 12.1833 25.2997 12.5083 25.6246C12.8332 25.9496 13.2738 26.1323 13.7333 26.1329H26.2667C26.7262 26.1323 27.1668 25.9496 27.4917 25.6246C27.8167 25.2997 27.9995 24.8591 28 24.3995V13.8662H14.4ZM26.9333 24.3995C26.9331 24.5763 26.8628 24.7457 26.7378 24.8707C26.6129 24.9957 26.4434 25.066 26.2667 25.0662H15.3333C15.4216 24.855 15.4669 24.6284 15.4667 24.3995V14.9329H26.9333V24.3995Z" fill="#231F20"/>
<path d="M21.3332 15.999H16.5332V21.3324H21.3332V15.999ZM20.2665 20.2657H17.5999V17.0657H20.2665V20.2657Z" fill="#231F20"/>
<path d="M25.8671 15.999H22.4004V17.0657H25.8671V15.999Z" fill="#231F20"/>
<path d="M25.8671 18.1328H22.4004V19.1995H25.8671V18.1328Z" fill="#231F20"/>
<path d="M25.8671 20.2656H22.4004V21.3323H25.8671V20.2656Z" fill="#231F20"/>
</svg>
