<svg width="40" height="40" viewBox="0 0 40 40" fill="none" xmlns="http://www.w3.org/2000/svg">
<rect width="40" height="40" rx="20" fill="white" fill-opacity="0.5"/>
<path d="M17.5742 27.6286C19.4191 28.2128 21.413 28.1102 23.1882 27.3398" stroke="#231F20" stroke-width="1.33333" stroke-linecap="round" stroke-linejoin="round"/>
<path d="M13.0352 23.9873C13.739 25.2064 14.7514 26.2188 15.9705 26.9226" stroke="#231F20" stroke-width="1.33333" stroke-linecap="round" stroke-linejoin="round"/>
<path d="M12 19.1748V19.9768C11.9987 20.793 12.1231 21.6045 12.3689 22.3828" stroke="#231F20" stroke-width="1.33333" stroke-linecap="round" stroke-linejoin="round"/>
<path d="M13.5632 15.165C13.0183 15.8913 12.6007 16.7049 12.3281 17.571" stroke="#231F20" stroke-width="1.33333" stroke-linecap="round" stroke-linejoin="round"/>
<path d="M16.772 12.6143C16.2019 12.8654 15.6635 13.183 15.168 13.5606" stroke="#231F20" stroke-width="1.33333" stroke-linecap="round" stroke-linejoin="round"/>
<path d="M24.7913 26.393C26.0831 25.4242 27.0523 24.088 27.5723 22.5592C28.0922 21.0305 28.1385 19.3804 27.7052 17.8248C27.272 16.2693 26.3792 14.8808 25.1438 13.841C23.9084 12.8012 22.3879 12.1585 20.7812 11.9971" stroke="#231F20" stroke-width="1.33333" stroke-linecap="round" stroke-linejoin="round"/>
<path d="M19.9805 17.1699V22.7839" stroke="#231F20" stroke-width="1.33333" stroke-miterlimit="10" stroke-linecap="round" stroke-linejoin="round"/>
<path d="M22.7878 19.9766H17.1738" stroke="#231F20" stroke-width="1.33333" stroke-miterlimit="10" stroke-linecap="round" stroke-linejoin="round"/>
</svg>
