<svg width="40" height="40" viewBox="0 0 40 40" fill="none" xmlns="http://www.w3.org/2000/svg">
<rect width="40" height="40" rx="20" fill="white" fill-opacity="0.5"/>
<path d="M20.372 11.5142C21.3 11.5 22.2208 11.5071 23.1416 11.5C23.1983 12.5837 23.5879 13.6887 24.3812 14.4537C25.1745 15.24 26.2937 15.6012 27.3845 15.7216V18.5762C26.3645 18.5407 25.3374 18.3282 24.4095 17.8891C24.0058 17.7049 23.6304 17.4712 23.262 17.2303C23.2549 19.2987 23.2691 21.367 23.2479 23.4282C23.1912 24.4198 22.8654 25.4044 22.2916 26.219C21.3637 27.579 19.7558 28.4644 18.1054 28.4927C17.0925 28.5494 16.0796 28.2731 15.2154 27.7631C13.7846 26.9202 12.7788 25.3761 12.63 23.7186C12.6159 23.3644 12.6088 23.0103 12.623 22.6632C12.7505 21.3174 13.4163 20.0282 14.4504 19.1499C15.6263 18.1299 17.2696 17.6412 18.8066 17.9316C18.8208 18.9799 18.7783 20.0282 18.7783 21.0765C18.0771 20.8499 17.2554 20.9136 16.6392 21.3386C16.1929 21.629 15.8529 22.0753 15.6758 22.5782C15.5271 22.9394 15.5696 23.3361 15.5767 23.7186C15.7467 24.8802 16.8658 25.8577 18.0558 25.7515C18.8491 25.7444 19.6071 25.284 20.0179 24.6111C20.1525 24.3773 20.3012 24.1365 20.3083 23.8603C20.3791 22.5924 20.3508 21.3315 20.3579 20.0636C20.365 17.2091 20.3508 14.3616 20.372 11.5142Z" fill="#231F20"/>
</svg>
