<?xml version="1.0" encoding="utf-8"?>
<!-- Generator: Adobe Illustrator 27.0.0, SVG Export Plug-In . SVG Version: 6.00 Build 0)  -->
<svg version="1.1" id="Layer_1" xmlns="http://www.w3.org/2000/svg" xmlns:xlink="http://www.w3.org/1999/xlink" x="0px" y="0px"
	 viewBox="0 0 50 50" style="enable-background:new 0 0 50 50;" xml:space="preserve">
<style type="text/css">
	.st0{fill:#010101;}
</style>
<g>
	<path class="st0" d="M9.91,35.06c0,0.93,0.75,1.68,1.68,1.68h5.03h1.68c0,3.7,3.01,6.71,6.71,6.71s6.71-3.01,6.71-6.71h1.68h5.03
		c0.93,0,1.68-0.75,1.68-1.68c0-0.93-0.75-1.68-1.68-1.68H38.1c0.19-0.53,0.31-1.09,0.31-1.68v-8.38c0-6.24-4.28-11.47-10.06-12.97
		V9.91c0-1.85-1.5-3.35-3.35-3.35s-3.35,1.5-3.35,3.35v0.44c-5.77,1.49-10.06,6.73-10.06,12.97v8.38c0,0.59,0.12,1.15,0.31,1.68
		h-0.31C10.66,33.38,9.91,34.13,9.91,35.06z M25,40.09c-1.85,0-3.35-1.5-3.35-3.35h6.71C28.35,38.58,26.85,40.09,25,40.09z
		 M14.94,31.71v-8.38c0-5.55,4.51-10.06,10.06-10.06s10.06,4.51,10.06,10.06v8.38c0,0.92-0.75,1.68-1.68,1.68h-3.35H19.97h-3.35
		C15.69,33.38,14.94,32.63,14.94,31.71z"/>
</g>
</svg>
