<svg viewBox="0 0 347 150" xmlns="http://www.w3.org/2000/svg">
	<path d="M.854 110.808H.062v-2.5h17.25v2.5h-.782c-2.98 0-3.388.847-3.388 1.766 0 .68.924 3.166.924 3.166l7.982 21.097 6.288-16.372c-.35-.917-1.75-4.41-1.75-4.41-1.274-3.17-2.12-5.247-5.703-5.247h-.774v-2.5h18.154v2.5h-.784c-3.122 0-3.77.318-3.77 1.934 0 1.495.86 3.638 1.487 5.203l7.27 18.892c1.885-4.99 7.158-18.835 7.158-18.835l.11-.314c.485-1.285 1.368-3.657 1.368-4.822 0-1.338-.616-2.058-3.903-2.058h-.75v-2.5h14.22v2.5h-.766c-3.4 0-4.305 2.446-5.332 5.328L41.996 149.93h-2.31l-9.123-23.663-8.935 23.662H19.25S6.004 115.523 5.997 115.523c-1.4-3.75-1.924-4.716-5.142-4.716zm310.817-2.515l25.014 28.476v-20.174c0-5.032 0-5.788-5.306-5.788h-.752v-2.515H347v2.515h-.727c-5.316 0-5.316.756-5.316 5.788v33.333h-2.28l-27.006-30.68v21.886c0 5.04 0 5.8 5.328 5.8h.734v2.495H301.37v-2.493h.73c5.32 0 5.32-.762 5.32-5.8V114.45c-2.074-2.36-3.023-3.465-6.05-3.626v-2.53h10.3zm-111.19-.437h2.37l1.016 14.632h-2.29l-.16-.528c-.974-3.378-2.483-5.978-4.488-7.738-2.2-1.933-5.06-2.908-8.51-2.908-8.622 0-13.562 6.65-13.562 18.26 0 5.753 1.605 10.096 4.768 12.945 2.48 2.215 5.94 3.447 9.768 3.447 1.41 0 4.86-.354 7.818-1.882 3.27-1.728 5.98-4.64 5.98-4.64l1.935 1.828s-2.5 4.048-7.112 6.264c-4.01 1.926-7.708 2.377-10.973 2.36-2.983-.02-5.81-.534-8.38-1.57-2.498-1-4.714-2.466-6.544-4.334-3.677-3.693-5.686-8.792-5.686-14.363 0-5.837 2.122-11.278 5.96-15.27 1.94-2.037 4.27-3.61 6.88-4.717 2.738-1.14 5.733-1.714 8.873-1.714 3.155 0 5.86.627 9.082 2.12l.126.06c.39.187.955.456 1.323.456.918 0 1.52-1.27 1.7-2.13l.108-.58zm-136.216 3.002h-.746v-2.494h19.74v2.494h-.74c-5.328 0-5.328.797-5.328 5.828v24.458c0 5.05 0 5.83 5.327 5.83h.742v2.49H63.517v-2.49h.746c5.338 0 5.338-.78 5.338-5.83v-24.458c0-5.03 0-5.828-5.338-5.828zm22.336-2.53h35.917l.496 10.892h-2.58l-.063-.833c-.354-4.202-2.28-6.064-6.234-6.064h-5.91V141.1c0 5.044 0 5.815 5.056 5.815h.76v2.516H95.078v-2.515h.75c5.073 0 5.073-.77 5.073-5.815v-28.777h-5.9c-3.98 0-5.905 1.862-6.267 6.064l-.047.833h-2.586l.496-10.893zm41.288 0h35.924l.493 10.892h-2.6l-.048-.833c-.346-4.2-2.278-6.064-6.25-6.064h-5.913V141.1c0 5.044 0 5.815 5.068 5.815h.756v2.516h-18.95v-2.515h.744c5.065 0 5.065-.77 5.065-5.815v-28.777h-5.908c-3.98 0-5.91 1.863-6.246 6.064l-.058.833H127.4l.488-10.893zm131.722 2.496h-.762v-2.53h34l.65 10.127h-2.666l-.136-.574c-1.11-5.734-2.454-5.946-7.982-5.946h-10.626v14.28h8.377c4.56 0 6.146-.277 6.488-5.15l.037-.67h2.597v15.266h-2.582l-.052-.652c-.47-4.745-1.643-5.227-6.488-5.227h-8.377v13.788c0 1.998.354 2.292 2.63 2.292h9.3c5.06 0 6.865-2.148 10.077-7.418l.227-.378h2.673L293 149.402H258.85v-2.487h.762c5.1 0 5.1-.786 5.1-5.815v-24.47c0-5.044 0-5.806-5.1-5.806zm-49.032 0h-.738v-2.53h19.112v2.53h-.748c-5.1 0-5.1.762-5.1 5.805v10.08h17.712v-10.08c0-5.044 0-5.806-5.124-5.806h-.762v-2.53h19.123v2.53h-.767c-5.108 0-5.108.762-5.108 5.805v24.47c0 5.03 0 5.815 5.108 5.815h.767v2.487H234.93v-2.487h.762c5.124 0 5.124-.786 5.124-5.815v-10.8h-17.713v10.8c0 5.03 0 5.815 5.1 5.815h.75v2.487H209.84v-2.487h.738c5.13 0 5.13-.786 5.13-5.815v-24.47c0-5.044 0-5.806-5.13-5.806zm-14.605-73.738c.28-.35.708-.682 1.364-.9l.304-.118c.607-.226 1.88-.71 3.266-.843 1.718-.177 3.12.225 4.15 1.18 2.21 2.04 2.458 2.346 2.7 3.222l.1.35c.72 2.82 1.495 4.92 2.29 6.233.65 1.064 1.13 1.293 1.305 1.342 1.004.292 1.844 0 2.078-.184.175-.128.402-.36.683-.66l.01-.01c.678-.726 1.598-1.722 3.19-2.375.73-.31 1.628-.565 2.417-.782.252-.07.548-.125.877-.19.35-.057.705-.13 1.015-.216.382-.11.732-.29.638-.796-.048-.336-.194-.624-.365-.745-.296-.206-.91-.164-1.67.11-.51.184-.686.303-.864.43l-.017.01c-.222.157-.46.313-.897.463l-.016.01c-.32.114-.85.293-1.375-.017-.438-.268-.533-.726-.556-.985V41.6c-.022-.14-.037-.21-.154-.34-.135-.164-.365-.35-.595-.534l-.02-.015c-.502-.4-1.17-.933-1.17-1.706 0-.09.008-.2.034-.308.09-.405.35-.72.784-.957.387-.204.88-.326 1.348-.44.423-.1.778-.18 1.088-.245.887-.2 1.377-.307 2.037-.565.23-.086.275-.32.293-.56.004-.032.004-.068.004-.097 0-.393-.135-.707-.208-.81-.84.282-4.485 1.677-5.014 1.927-.764.367-3.415 1.472-5.463.404-1.493-.77-2.297-1.713-2.538-2.973l-.008-.017c-.08-.386-.27-1.292.618-1.58.413-.14.726-.067 1.003.22.23.245.417.65.633 1.118l.008.017.226.476c.366.775 1.48 1.125 2.385 1.067.606-.04 1.555-.3 2.54-.685v-.007c.044-.015 4.006-1.328 4.736-1.642-.022-.132-.132-.436-.182-.532l-.007-.007c-.114-.23-.237-.353-.406-.38-.608-.046-.875.085-1.846.548l-.83.408c-.667.328-1.245.617-1.906.383-.605-.217-.898-.757-1.117-1.247l-.185-.415V32.1s-.018-.043-.044-.09c-.123-.053-.507-.224-.714-.31-1.16-.545-1.457-1.284-1.51-1.805v.01c-.013-.077-.013-.14-.013-.21 0-.792.507-1.582 1.497-2.34 1.497-1.14 1.848-1.24 3.09-1.48l.182-.034c.468-.098.49-.124.8-.498l.462-.507.32-.348c.08-.087.127-.137.155-.16.664-.62 1.61-1.074 2.96-1.404-.1-.332-.148-.648-.148-.944 0-.096.017-.195.04-.275l.03-.128v-.025c.013-.03.013-.064.013-.103.02-.063.022-.13.047-.198l.308-.79.8.26c.19.058 1.357.397 2.282.63.043-.36.1-.785.182-1.25l.24-1.437 1.173.862c.428.297 1.005.38 1.734.49 0 0 .407.056.448.067.722-.243 1.335-.38 1.854-.488l1.04-.253 1.258-.27.064 1.858c.02.36.03.73.03 1.1 0 .977-.132 1.795-.41 2.51 1.2.093 2.966.03 3.67-.206l1.676-.51-.46 2.27c-.117.718-.325 1.9-1.05 2.998.013.004.02.01.02.01 1.76.55 4.405 1.376 5.16 3.907l.446 1.477-1.55-.19c-.47-.056-1.24.123-1.58.475-.116.12-.113.19-.097.273.09.51.67 1.045 1.346 1.66l.04.035c1.216 1.11 2.89 2.628 3.235 5.438l.173 1.478-1.446-.38c-.475-.124-1.337-.202-2.17-.077-.905.13-1.534.467-1.774.918-.62 1.195-.347 1.96.343 3.586l.142.356 1.132 2.7-2.577-1.443s-.11-.056-.303-.097c.667 1.688 1.916 4.288 3.023 6.28 1.347 2.463 3.644 5.334 5.324 7.43l.036.04.38.494c.61.745 1.03 1.583 1.4 2.32 0 0 .065.127.065.13.42.855.715 1.412 1.033 1.747.32.343.643.467 1.122.432.898-.067 1.24-.832 1.354-1.157.085-.252.128-.522.128-.812 0-.262-.04-.545-.112-.82-.188-.696-.614-1.348-1.223-1.888-.01-.002-1.803-1.423-1.803-1.423-1.408-1.06-3-2.258-4.268-3.84-1.465-1.83-2.214-3.828-2.305-6.113-.008-.13-.015-.26-.015-.38 0-1.918.585-3.505 1.732-4.72 1.99-2.084 4.812-2.17 5.13-2.177 2.173-.03 3.725.812 4.644 1.537.614-.24 1.59-.61 2.837-.393 1.49.265 2.984 1.33 4.433 3.176l1.1 1.41-1.768.225c-.508.06-.854.112-1.16.172 1.693 1.86 2.052 3.843 2.052 5.192v.103c-.007 1.588-.194 2.547-.457 3.733l-.687 3.294-1.34-1.953c-.73-1.055-1.672-1.948-3.227-3.423-.922-.87-1.634-1.587-2.17-2.18.032.18.594 2.983.594 2.983l-2.296-2.14c-.428-.387-1.092-1.22-1.644-2.22-.485-.855-1.05-2.156-1.05-3.457 0-.097.02-.186.038-.278.005-.037.012-.078.012-.106-.42-.16-.9.15-1.044.256-.11.074-.26.33-.33.778-.006.097-.013.225-.013.38 0 1.04.44 2.195 1.186 3.1 1.344 1.632 2.66 2.576 3.816 3.41l.046.033.698.523.47.356.158.117c.032.022.048.04.058.05 1.06.906 2.02 2.097 2.71 3.337.843 1.513 1.277 3.053 1.277 4.58 0 .37-.03.756-.095 1.176-.196 1.225-1.006 2.64-2.162 3.785-1.273 1.277-2.828 2.06-4.38 2.225v.004c0 .797.225 1.302.495 1.903l.005.02.01.025c.304.677.633 1.446.633 2.56v.106l-.023 1.548-1.413-.65h-.007c-.544-.293-1.096.11-1.27.247v.006l-.055.05c-.362.29-.545 1.13-.545 2.415 0 .31.008.642.03 1 .09 1.517.39 3.432.78 5.137l.49 2.07-.182-.07c-.008-.003-1.063-.382-1.844-.58-.26-.065-.475.01-.643.21-.342.41-.397 1.3-.116 1.93v.004l.832 2.265-3.12-1.143h-.016c-.603-.252-.83-.35-1.322-.045-.427.25-.51.365-.602.5l-.015.007c-.273.35-.55.648-1.376 1.11-.49.27-1.34.28-4.513.185l-2.39-.053c-1.3 0-1.76-.933-2.08-1.55-.05-.11-.1-.22-.155-.312-.187-.307-.516-.617-1.326-.27l-.008.003-1.695.417.35-1.667v-.004c.757-2.26 2.112-5.073 4.263-5.71 1.88-.558 3.946-.255 6.13.894.252-.203.43-.513.54-.743.212-.493.323-1.068.323-1.627 0-.417-.06-.77-.17-1.002-.138-.29-.68-.663-1.328-.758-.383-.057-.924-.04-1.293.37l-.628.702-.733-.57c-.277-.2-1.095-.373-1.953-.396-.975-.026-1.738.12-2.05.402h-.006c-.38.332-.707.88-.707.896l-.07.113-.89-.774c-.52-.448-1.246-.713-1.52-.636-2.578.75-2.743 4.267-2.826 6.37l-.128 2.364-.143-.056c-.004 0-.497-.19-1.038-.435-.28-.13-.505-.137-.67-.03-.44.28-.44 1.383-.44 1.792v1.566l-1.676-.767-.14-.06c-.69-.317-1.978-.923-3.577 1.034-.4.484-.816.472-1.25.465l-.183-.004h-1.375c-1.777-.007-4.735-.015-4.898 0-.325.04-.603-.042-.826-.227-.452-.388-.54-1.133-.566-1.543-.01-.185-.135-.46-.372-.614-.165-.097-.416-.182-.767-.04h-.003l-2.125.725.85-2.113c2.483-4.974 5.672-7.1 8.743-5.834l.168.07c.7.283 1.738.704 1.982.704.052-.038.216-.198.384-.385.798-.85 1.77-2.88 1.853-3.882v-.015c0-.05-.014-.095-.057-.126-.063-.064-.147-.095-.208-.088l-1.834.076 1.044-1.673.267-.434c.584-.886 1.644-2.55 1.74-3.154 0-.062-.017-.168-.09-.217-.047-.04-.124-.043-.233-.018h-.007l-2.155.387 1.205-1.987c3.988-6.535 7.873-7.624 10.425-7.39 1.874.172 3.648 1.04 5.08 1.74.435.207.913.435 1.322.603-.333-1.163-1.424-3.11-3.72-3.875-.013 0-1.12-.332-1.12-.332-1.343-.392-2.888-.86-4.344-1.488-1.705-.74-2.92-1.548-3.718-2.465-.445.65-1.14 1.366-2.632 1.877-.8.276-1.358 1.504-1.84 2.576l-.008.026c-.376.835-.733 1.616-1.274 2.12l-.602.564-.676-.493c-.204-.143-.6-.205-1.216-.16v.156c0 .246.01.454.106.74l.007-.007c.507 1.172.135 2.658-.047 3.235v.02l-.373 1.1-1.03-.51c-.587-.292-1.31-.555-1.964-.71-.817-.188-1.46-.2-1.847-.027-.226.098-.354.254-.43.532l-.378 1.294-1.127-.72c-.54-.333-.917-.402-1.305-.47-.675-.122-1.522-.263-2.182-1.517-.237-.472-.354-.918-.354-1.355 0-.336.07-.595.117-.79l.037-.153c-.02-.036-.073-.12-.208-.25-.72-.727-1.568-2.036-1.568-3.36 0-.156.016-.292.037-.426.11-.755.53-1.358 1.19-1.706.772-.41 1.37-.533 1.853-.628l.015-.004c.376-.075.55-.117.74-.243.01 0 .395-.283.395-.283 1.07-.79 3.046-2.25 5.237-2.072 1.73.14 1.925-.12 2.508-.893.394-.52.48-1.562.172-2.145 0-.004-.1-.17-.27-.232-.135-.034-.286-.016-.457.08-.38.207-.803.455-1.204.696l-.6.356-.037.022c-.676.395-1.216.714-1.65.84l-1.02.294-.243-1.028c-.115-.43-.115-.805-.115-1.156v-.08c.01-.636.02-.893-.507-1.29-.598-.463-1.226-.28-1.66-.045l-1.6.918.098-1.837c.004-.123.004-.25.004-.383 0-1.975-.625-5.483-1.162-7.15-1.278.19-2.307-.79-2.874-1.328-.127-.11-.342-.325-.47-.417-.084.012-.505.1-.505.1l-.954-1.34c-.3-.408-.605-.828-.894-1.253-.655 3.124-1.238 8.915.76 16.36 3.925 14.806-4.988 23.792-14.665 27.22-6.083 2.167-7.412 3.082-8.79 4.03l-.945.653-.906-.652c-1.38-.948-2.673-1.863-8.768-4.03-9.67-3.428-18.604-12.414-14.646-27.22 1.984-7.456 1.39-13.253.738-16.374-.292.43-.6.854-.906 1.266l-.953 1.34-.076-.012s-.22-.04-.423-.087c-.127.087-.313.266-.456.405l-.018.01c-.558.54-1.596 1.52-2.88 1.328-.538 1.69-1.162 5.202-1.162 7.15 0 .135 0 .253.01.377l.103 1.845-1.618-.92c-.34-.19-1.02-.45-1.65.045-.523.398-.516.655-.505 1.294v.026c0 .354 0 .758-.11 1.207l-.244 1.028-1.018-.294c-.46-.137-1.06-.495-1.69-.862l-.596-.356c-.41-.24-.83-.49-1.208-.696-.168-.087-.326-.114-.45-.08-.186.053-.266.218-.273.232-.31.583-.234 1.628.16 2.145.584.774.78 1.032 2.524.893 2.18-.18 4.154 1.282 5.216 2.072 0 0 .402.283.405.283.195.126.367.168.75.243h.008c.474.1 1.07.22 1.855.632.65.345 1.062.942 1.194 1.706.02.147.02.292.02.426 0 1.33-.842 2.64-1.557 3.36-.132.13-.19.214-.213.25.015.042.037.152.037.152.06.215.113.47.113.79 0 .456-.12.895-.36 1.355-.655 1.253-1.487 1.394-2.16 1.516h-.014c-.387.068-.763.137-1.29.47l-1.14.72-.37-1.294c-.08-.278-.205-.434-.443-.53-.38-.173-1.02-.162-1.84.027-.646.153-1.384.416-1.96.707l-1.045.51-.358-1.096c-.062-.192-.62-1.907-.062-3.257l.008.007c.11-.286.12-.487.12-.74v-.156c-.618-.044-1.02.018-1.22.16l-.672.494-.608-.563c-.538-.498-.888-1.283-1.267-2.12-.465-1.04-1.045-2.32-1.86-2.603-1.49-.51-2.17-1.227-2.62-1.877-.793.917-2.02 1.724-3.73 2.465-1.453.635-3.005 1.096-4.337 1.488l-1.118.333c-2.308.778-3.4 2.713-3.724 3.876.423-.168.916-.407 1.32-.603 1.43-.7 3.208-1.568 5.077-1.74 2.556-.234 6.44.855 10.43 7.39l1.208 1.986-2.16-.388c-.11-.026-.194-.022-.25.017-.06.052-.083.154-.083.216.102.6 1.158 2.242 1.723 3.12l.296.467 1.037 1.673-1.833-.077c-.058-.008-.15.023-.204.076-.044.042-.055.087-.055.137v.018c.085 1 1.056 3.03 1.855 3.88.183.204.322.353.38.384.234 0 1.228-.396 1.89-.666l.258-.107c3.07-1.264 6.26.86 8.745 5.835l.847 2.113-2.12-.725h-.008c-.344-.142-.607-.057-.757.04-.244.155-.365.43-.376.614-.014.323-.102 1.14-.573 1.542-.218.183-.496.266-.817.226h.007c-.18-.015-3.138-.007-4.903 0h-1.374l-.186.003c-.442.006-.85.018-1.245-.466-1.61-1.957-2.896-1.35-3.586-1.034l-.135.06-1.675.766V93.09c0-.41 0-1.512-.45-1.794-.16-.106-.38-.1-.663.03-.534.246-1.038.436-1.04.436l-.144.056-.12-2.367c-.092-2.1-.245-5.616-2.83-6.366-.274-.077-.997.188-1.52.637l-.894.775-.062-.113c-.007-.015-.325-.564-.716-.896-.31-.282-1.077-.428-2.052-.402-.865.023-1.683.195-1.95.396l-.74.57-.626-.703c-.39-.43-.974-.415-1.292-.37-.646.096-1.194.47-1.336.762-.103.23-.172.59-.172.998 0 .562.117 1.14.325 1.62.16.343.343.596.544.75 2.19-1.15 4.26-1.452 6.134-.895.976.285 1.875 1.04 2.66 2.26.602.912 1.14 2.073 1.603 3.45v.005l.35 1.667-1.694-.417-.012-.003c-.807-.347-1.124-.037-1.322.27-.05.093-.102.19-.16.31-.307.62-.774 1.552-2.074 1.552l-2.396.052c-3.165.095-4.028.084-4.513-.186-.818-.454-1.09-.743-1.373-1.11h-.004c-.1-.132-.183-.244-.624-.507-.486-.305-.71-.207-1.315.045h-.01l-3.13 1.143.84-2.264v-.002c.277-.634.226-1.523-.132-1.94-.167-.193-.38-.266-.635-.2-.778.197-1.825.576-1.833.58l-.19.068.478-2.07c.402-1.7.698-3.616.792-5.137.023-.362.037-.696.037-1.006 0-1.277-.193-2.118-.548-2.407l-.062-.05c-.168-.145-.73-.547-1.27-.256l-1.42.648-.027-1.544v-.106c0-1.095.333-1.864.63-2.538l.02-.047.012-.02c.26-.6.495-1.114.495-1.904v-.005C97 74.38 95.44 73.597 94.16 72.32c-1.148-1.143-1.95-2.555-2.152-3.78-.058-.37-.088-.758-.088-1.18 0-1.527.424-3.067 1.26-4.58.694-1.24 1.658-2.43 2.713-3.336.015-.01.037-.03.07-.05l.153-.118.48-.356.69-.523.028-.02c1.16-.84 2.475-1.787 3.83-3.423.74-.905 1.186-2.06 1.186-3.1 0-.082-.007-.174-.007-.254l-.007-.137c-.07-.467-.24-.7-.32-.767-.15-.1-.63-.41-1.063-.257.007.023.014.054.017.083.02.095.044.195.044.3 0 1.3-.566 2.602-1.048 3.457-.555 1-1.226 1.833-1.643 2.22l-2.3 2.14s.562-2.802.6-2.983c-.55.6-1.258 1.315-2.174 2.18-1.615 1.528-2.507 2.378-3.236 3.422l-1.34 1.952-.68-3.294c-.22-.998-.445-2.033-.46-3.733v-.103c0-1.353.365-3.332 2.052-5.192-.292-.06-.642-.113-1.16-.172l-1.772-.226 1.11-1.41c1.447-1.845 2.943-2.91 4.433-3.175 1.238-.217 2.228.154 2.83.393.924-.725 2.48-1.568 4.645-1.537.153.007.942.026 1.946.318 1.29.364 2.356.992 3.192 1.865 1.146 1.21 1.723 2.805 1.723 4.735 0 .12 0 .234-.004.36-.09 2.29-.847 4.29-2.308 6.11-1.278 1.593-2.87 2.787-4.28 3.842 0 0-1.782 1.42-1.79 1.423-.992.878-1.34 1.873-1.34 2.696 0 .307.048.583.13.825.112.325.462 1.09 1.357 1.157.477.035.798-.09 1.113-.43.31-.336.62-.9 1.033-1.75l.03-.062c.387-.758.806-1.62 1.424-2.386l.397-.495c1.684-2.106 3.995-4.99 5.365-7.47 1.08-1.96 2.333-4.56 3.016-6.277-.16.03-.26.075-.292.094l-2.586 1.442 1.125-2.7.146-.356c.69-1.625.973-2.39.34-3.586-.558-1.066-2.9-1.12-3.946-.843l-1.436.38.172-1.477c.34-2.818 2.012-4.328 3.236-5.438l.032-.026c.676-.618 1.263-1.15 1.35-1.672.02-.084.02-.153-.097-.27-.335-.345-1.106-.53-1.592-.476l-1.533.19.434-1.477c.76-2.525 3.406-3.357 5.163-3.91 0 0 .014-.004.02-.008-.744-1.137-.948-2.384-1.047-2.998-.003 0-.456-2.27-.456-2.27l1.67.51c.704.236 2.475.3 3.676.205-.277-.715-.412-1.533-.412-2.51 0-.37.014-.74.036-1.1l.07-1.856 1.248.27s1.026.252 1.034.252c.634.126 1.197.263 1.847.488.05-.01.455-.066.455-.066.73-.11 1.312-.194 1.735-.49l1.176-.863.24 1.437c.074.432.133.86.184 1.25.93-.233 2.103-.572 2.274-.63l.807-.26.308.79c.03.068.037.135.044.197.004.038.007.07.018.102l.004.01v.015c0 .013.02.12.02.12.023.088.05.18.05.282 0 .295-.056.614-.154.943 1.347.33 2.293.783 2.962 1.404h-.005c.03.022.077.065.16.16l.32.348.46.507c.31.374.324.4.795.5l.19.033c1.238.24 1.592.34 3.082 1.48.993.75 1.5 1.544 1.5 2.34 0 .07 0 .133-.014.21v-.01c-.047.52-.35 1.26-1.504 1.804-.216.086-.6.257-.716.31-.026.05-.044.106-.044.106l-.19.403c-.233.52-.533 1.04-1.117 1.246-.647.234-1.235-.055-1.907-.383l-.825-.408c-.972-.463-1.24-.594-1.852-.547-.204.03-.318.21-.416.386-.044.096-.15.397-.186.532.752.314 4.703 1.627 4.746 1.642h.005v.007c.985.385 1.93.646 2.534.685.465.032.977-.053 1.4-.223.337-.137.775-.39.987-.844l.222-.47.014-.022c.208-.467.39-.872.628-1.118.274-.286.59-.36 1.005-.22.865.285.697 1.143.624 1.555l-.01.044c-.26 1.265-1.056 2.21-2.54 2.974-2.043 1.068-4.694-.037-5.46-.404-.534-.25-4.182-1.645-5.015-1.926-.076.102-.215.416-.215.81 0 .028 0 .064.004.096.014.24.062.474.296.56.664.258 1.16.368 2.063.568.303.07.646.15 1.062.24.467.116.957.238 1.344.44.437.238.696.553.79.958.023.106.038.21.038.305 0 .767-.672 1.306-1.18 1.71l-.015.016c-.226.18-.46.37-.598.533-.117.127-.132.2-.154.337l-.006.022c-.018.172-.066.69-.554.98-.516.314-1.067.123-1.39.01l-.002-.004c-.457-.164-.712-.338-.895-.463l-.02-.018c-.184-.127-.363-.238-.856-.422-.76-.274-1.377-.316-1.673-.11-.168.12-.303.402-.364.745-.088.506.265.685.657.796.292.086.65.16 1 .217.318.065.62.12.87.19.788.215 1.683.467 2.427.783 1.567.653 2.495 1.638 3.17 2.357l.025.03c.24.256.485.52.675.666.252.18 1.085.468 2.085.176.176-.05.65-.278 1.297-1.342.806-1.312 1.577-3.408 2.297-6.232l.098-.35c.237-.885.493-1.188 2.698-3.224 1.034-.954 2.432-1.356 4.156-1.18 1.39.134 2.66.618 3.264.844l.03.012.27.107c.66.218 1.093.556 1.374.91 1.1-1.417 2.27-3.16 2.537-4.34l.14-.543.53-.215c3.16-1.23 16.06-1.794 19.064-1.83h.34c2.996.036 15.866.6 19.027 1.83l.554.214.105.542c.274 1.178 1.45 2.915 2.553 4.33zm-46.23 1.683v-.045c0-.108 0-.197-.037-.28-.022-.078-.084-.288-.562-.45l-.362-.13c-1.063-.41-3.896-1.494-5.455-.062-2.034 1.88-2.063 1.988-2.162 2.344l-.077.312c-1.402 5.468-3.023 8.387-4.933 8.934-1 .282-1.964.23-2.728 0 .09 1.01-.047 1.8-.058 1.87l-.304 1.67-1.216-1.198c-.89-.9-2.074-1.476-2.932-1.812-.132 2.078-1.107 3.836-2.855 4.91l-1.122.694-.232-1.31c-.23-1.31-1.278-2.133-2.01-2.52-1.06 2.243-2.274 2.695-3.76 3.24-.555.195-1.113.405-1.774.734l-2.144 1.07.91-2.21c.883-2.205.324-3.976-.498-4.895-.405-.44-.868-.72-1.372-.843-.526 1.673-2.202 5.192-3.542 7.634-1.443 2.61-3.823 5.576-5.544 7.735l-.4.5c-.494.614-.867 1.368-1.228 2.095-.79 1.595-1.68 3.405-4.013 3.235-1.4-.104-2.556-1.043-3.02-2.448-.635-1.885.065-4.07 1.753-5.567l1.917-1.5c2.644-2.01 5.652-4.275 5.81-8.518.06-1.556-.34-2.806-1.19-3.703-1.162-1.227-2.985-1.573-3.776-1.58-1.71-.028-3.08.717-3.78 1.418l-.4.403-.484-.176-.57-.205c-.94-.378-2.187-.877-4.093.966.482.107.935.248 1.57.487l1.545.58-1.32.983c-1.77 1.33-2.667 2.998-2.667 4.95v.095c0 1.035.11 1.774.24 2.484.607-.648 1.32-1.334 2.265-2.212 2.293-2.192 2.863-2.99 3.107-3.484l.804-1.592.806 1.592c.077.148.18.363.288.615.5-.864.943-1.892.943-2.743 0-.212-.03-.4-.072-.582l-.157-.477.33-.376c.974-1.132 2.545-1.236 3.918-.264.588.417.982 1.158 1.11 2.088.215 1.604-.395 3.5-1.593 4.944-1.518 1.844-3.012 2.916-4.217 3.783l-1.263.942c-1.42 1.236-3.743 4.16-3.247 7.342.27 1.634 2.626 4.65 5.53 4.463l.816-.052.13.81c.064.404.086.76.086 1.09 0 1.207-.358 2.023-.66 2.71-.106.26-.216.496-.304.743.617.037 1.008.106 1.746.67.726.564 1.303 2.787 1.303 4.635 0 1.634-.32 3.708-.554 4.935.48-.14 1.373-.022 1.786.533.704.98.77 1.788.77 2.75 0 .022-.01.036-.01.05.628-.175 1.376-.206 2.29.35.69.42.93.69 1.153.99.11.14.214.265.707.547.438.082 2.337.027 3.6-.015l2.45-.056c.19 0 1.166-3.15 2.51-2.397-.73-1.64-1.59-2.71-2.396-2.95-1.51-.446-3.242-.12-5.133.97l-.336.2-.375-.113c-.872-.267-1.574-.943-2.034-1.958-.59-1.35-.664-3.114-.13-4.217.416-.915 1.544-1.654 2.775-1.835.902-.137 1.73.047 2.413.495 1.224-.604 2.816-.615 3.922-.404.416.072 1.015.25 1.54.56 2.645-3.494 1.118-6.222-.068-7.575-1.738-1.974-4.338-2.763-5.343-2.118-.35.238-1.812.08-1.823-1.19-.01-1.406 1.1-5.3 5.134-6.65.016 0 1.188-.356 1.188-.356 2.337-.686 7.212-2.102 7.723-4.33l.53-2.333 1.403 2.585c.537 1.006.825 1.567 2.202 2.034 1.57.554 2.348 2.257 2.958 3.615.168.37.346.748.514 1.05.913-.27 1.98-.13 2.882-.01l1.39.196-.603.89c-.07.13-.248.482-.248.775v.085c0 .357 0 .845-.27 1.47v.01c-.074.18-.107.39-.107.624 0 .1.025.202.033.297 1.15-.43 2.99-.91 4.356-.317.413.188.75.456 1.01.807.443-.173.816-.24 1.137-.3.506-.088.572-.098.806-.53.098-.204.14-.328.14-.454 0-.093-.023-.186-.063-.312-.044-.21-.092-.425-.092-.67 0-.443.166-.97.765-1.564.653-.66 1.004-1.502 1.004-2.014 0-.05 0-.102-.012-.142-.022-.172-.09-.24-.194-.3-.544-.288-.927-.363-1.34-.45-.43-.09-.917-.185-1.428-.523l-.474-.34c-.87-.635-2.48-1.812-3.937-1.705-2.395.193-3.195-.32-4.196-1.636-.928-1.212-.873-3.15-.3-4.26.43-.798 1.118-1.23 1.907-1.193.95.05 2.106.734 3.246 1.39.054.038.12.082.193.12.026-.72.197-1.58 1.245-2.39.717-.544 1.58-.73 2.44-.598.146-2.648.94-6.87 1.717-8.145l.518-.875.797.626c.35.272.565.29 1.547-.67.394-.375.854-.797 1.39-.93.16-.245.326-.49.326-.49.417-.555 1.227-1.65 1.755-2.674l-.005-.015-.252-.627.442-.505c.093-.1.2-.217.317-.35zm48.12 1.537c.53 1.01 1.326 2.085 1.728 2.632 0 0 .176.245.34.49.54.133.997.555 1.388.93.98.96 1.193.942 1.548.67l.796-.625.53.875c.77 1.275 1.55 5.497 1.708 8.145.866-.13 1.732.054 2.443.598 1.048.81 1.213 1.67 1.234 2.39.08-.038.138-.082.2-.12 1.133-.656 2.3-1.34 3.25-1.39.786-.038 1.476.395 1.9 1.194.574 1.11.635 3.047-.292 4.26-1.005 1.314-1.804 1.828-4.196 1.635-1.454-.107-3.08 1.07-3.94 1.706l-.472.34c-.52.337-.996.432-1.424.522-.413.087-.8.162-1.35.45-.096.06-.166.128-.195.3-.008.04-.008.093-.008.142 0 .512.35 1.353 1.004 2.014.595.593.763 1.12.763 1.563 0 .245-.04.46-.09.67-.038.127-.08.22-.08.313 0 .126.056.25.155.455.234.43.296.44.818.53.302.058.687.126 1.12.3.267-.352.6-.62 1.02-.808 1.355-.594 3.19-.112 4.345.317.007-.095.036-.197.036-.298 0-.234-.036-.446-.102-.624v-.012c-.27-.624-.284-1.112-.284-1.47v-.083c0-.292-.16-.644-.24-.775l-.6-.89 1.39-.195c.9-.12 1.977-.26 2.893.01.165-.302.34-.68.505-1.05.617-1.357 1.39-3.06 2.97-3.614 1.357-.467 1.66-1.028 2.193-2.034l1.398-2.585.527 2.334c.507 2.228 5.396 3.644 7.73 4.33 0 0 1.168.357 1.18.357 4.038 1.35 5.148 5.244 5.133 6.65-.004 1.27-1.467 1.428-1.822 1.19-1-.645-3.596.144-5.34 2.118-1.182 1.353-2.712 4.08-.065 7.575.53-.31 1.12-.488 1.537-.56 1.114-.21 2.702-.2 3.922.405.685-.448 1.522-.632 2.405-.495 1.23.18 2.363.92 2.794 1.835.51 1.103.45 2.867-.147 4.217-.446 1.015-1.155 1.69-2.03 1.958l-.377.112-.332-.198c-1.89-1.092-3.626-1.417-5.138-.97-.81.238-1.662 1.31-2.39 2.95 1.35-.753 2.324 2.395 2.503 2.395l2.442.055c1.268.042 3.163.097 3.608.015.49-.282.6-.406.705-.546.226-.3.468-.57 1.164-.99.902-.557 1.657-.526 2.285-.35 0-.015-.015-.03-.015-.05 0-.963.074-1.77.778-2.75.406-.556 1.287-.675 1.782-.534-.233-1.227-.57-3.3-.57-4.935 0-1.848.59-4.07 1.315-4.634.727-.564 1.13-.633 1.743-.67-.09-.246-.195-.48-.31-.742-.297-.687-.66-1.503-.66-2.71 0-.33.03-.686.1-1.09l.125-.81.817.052c2.903.187 5.255-2.83 5.53-4.463.49-3.183-1.816-6.106-3.243-7.342l-1.26-.953c-1.21-.856-2.714-1.928-4.226-3.772-1.196-1.444-1.798-3.34-1.587-4.944.117-.93.52-1.67 1.11-2.088 1.373-.972 2.943-.868 3.918.264l.323.376-.143.477c-.058.18-.087.37-.087.582 0 .85.448 1.88.938 2.744.11-.25.217-.466.29-.614l.814-1.592.803 1.592c.24.495.804 1.292 3.11 3.48.943.882 1.652 1.568 2.265 2.216.125-.71.234-1.45.234-2.484v-.096c0-1.95-.894-3.618-2.663-4.95l-1.32-.98 1.54-.582c.628-.24 1.09-.38 1.585-.487-1.917-1.843-3.16-1.344-4.1-.966l-.58.205-.48.176-.402-.403c-.704-.7-2.063-1.446-3.776-1.42-.8.01-2.606.355-3.77 1.582-.852.897-1.258 2.147-1.192 3.703.154 4.243 3.16 6.51 5.818 8.52l1.895 1.498c1.705 1.497 2.388 3.682 1.764 5.567-.464 1.405-1.62 2.344-3.024 2.448-2.32.17-3.216-1.64-4.012-3.235-.358-.727-.727-1.48-1.224-2.096l-.402-.5c-1.72-2.158-4.097-5.124-5.535-7.734-1.347-2.442-3.017-5.96-3.542-7.634-.504.123-.975.404-1.377.843-.83.92-1.39 2.69-.488 4.895l.89 2.21-2.132-1.07c-.662-.33-1.223-.54-1.772-.733-1.497-.547-2.705-1-3.764-3.24-.738.385-1.786 1.21-2.01 2.518l-.233 1.31-1.125-.693c-1.745-1.075-2.716-2.833-2.86-4.91-.842.335-2.04.912-2.924 1.81l-1.215 1.2-.306-1.67c-.024-.072-.147-.86-.057-1.87-.762.228-1.73.28-2.732 0-1.904-.548-3.53-3.467-4.932-8.936 0 0-.073-.288-.076-.313-.1-.356-.124-.464-2.16-2.344-1.55-1.432-4.39-.35-5.457.062l-.358.13c-.48.162-.54.372-.573.45-.023.083-.037.172-.037.28v.005c.132.148.25.278.354.388l.425.505-.227.628-.025.057zM226.78 81.18c-.11.01-.226.036-.34.07-3.63 1.05-3.673 5.07-3.805 7.583-.296.02-.552.106-.72.192-.956.508-1.372 1.77-1.573 2.757-1.183-.493-2.53-.486-3.414.318-.826.746-1.18.95-1.52 1.356-.67.057-5.95-.01-5.95-.01-.115-.67-.403-2.674-1.994-2.135 1.23-1.97 3.512-4.78 5.754-3.86 2.683 1.094 3.315 1.36 4.652-.075.894-.96 2.33-4.33 2.37-5.213.04-.898-.106-1.42-.698-1.64.745-1.108 1.694-2.775 1.694-3.963 0-.197-.028-.38-.08-.538-.215-.634-.456-1-.767-1.222 3.17-4.647 6-5.51 7.868-5.346 1.166.11 1.928.432 3.024.95-1.193.495-2.323 1.5-3.298 2.6-2.15 2.445-2.574 5.355-1.204 8.177zM118.832 69.455c1.873-.164 4.703.7 7.866 5.346-.304.22-.552.588-.76 1.222-.062.16-.084.34-.084.537 0 1.187.95 2.854 1.69 3.96-.587.22-.733.744-.7 1.642.043.882 1.475 4.254 2.38 5.213 1.333 1.436 1.97 1.17 4.652.074 2.242-.92 4.518 1.89 5.737 3.86-1.574-.538-1.866 1.465-1.975 2.135 0 0-5.288.068-5.956.01-.343-.404-.694-.61-1.526-1.355-.888-.804-2.224-.81-3.414-.318-.202-.988-.61-2.25-1.567-2.757-.16-.086-.42-.17-.73-.192-.125-2.512-.165-6.533-3.79-7.584-.118-.034-.234-.06-.347-.07 1.372-2.814.95-5.73-1.202-8.175-.978-1.102-2.11-2.106-3.308-2.6 1.11-.52 1.862-.84 3.034-.95zm77.826-1.41l-17.65 17.68c-2.52 1.006-3.8 1.687-4.774 2.29l22.497-22.527c.005.23.008.462.008.69 0 .643-.03 1.266-.08 1.868zm-24.362 19.652c-.44-.264-.962-.546-1.63-.858l15.972-15.994c.994.07 1.72.245 2.125.37l-16.467 16.482zm-4.953-2.266l12.63-12.65.69-.432c.528-.338 1.868-1.05 3.583-1.358l-15.15 15.146c-.52-.218-1.096-.452-1.753-.706zm-2.78-1.03c-.21-.075-.437-.16-.682-.258l16.98-17.024c.038.186.056.372.056.543 0 .354-.062.675-.183.936l-.003.008c-.226.5-1.49 1.727-1.964 2.16l-.14.135s.354.502.403.567L165.69 84.81c-.36-.136-.733-.266-1.128-.41zm29.92-9.4l-7.034 7.036c-1.907 1.172-3.675 1.92-4.822 2.33L196.18 70.79c-.395 1.558-.982 2.955-1.698 4.21zm-32.198 8.462c-.518-.245-1.073-.526-1.643-.847l7.23-7.223c1.015-.006 1.994-.168 2.92-.464l-8.507 8.534zm-4.516-2.71l6.09-6.1c.624.243 1.274.415 1.935.544l-6.573 6.57c-.482-.31-.968-.65-1.453-1.013zm-2.517-2.238l5.653-5.67c.448.392.927.735 1.435 1.04l-5.824 5.852c-.43-.386-.858-.793-1.263-1.222zm-2.103-2.633l5.7-5.707c.102.21.182.422.306.627.2.314.417.614.65.9l-5.612 5.61c-.365-.452-.72-.93-1.044-1.43zm19.57-8.45l-.045.217c-.277 1.433-.902 2.506-1.026 2.753-.81 1.54-2.668 2.354-4.08 2.354-.402 0-1.494-.027-2.677-.73-1.026-.602-1.523-1.443-1.58-1.538-1.01-1.62-.808-3.595-.644-4.455-.443.027-1.155.008-1.798-.403-.78-.49-1.146-1.476-1.285-1.93h-.91c-.105.88-.386 4.024 1.242 6.625 1.595 2.572 4.608 4.175 7.843 4.175 1.588 0 3.078-.363 4.404-1.093 1.147-.632 2.173-1.54 2.976-2.618.643-.866 1.136-1.786 1.47-2.74.31-.923.466-1.832.466-2.736v-5.392h-4.244c.014 3.417.05 5.08.033 5.657-.033.62-.048 1.248-.15 1.856zm-21.192 5.293l6.234-6.224c.06.656.22 1.36.43 2.073l-5.882 5.866c-.285-.543-.548-1.117-.782-1.717zm16.023-1.76c.502-.21.932-.4.95-.4.04-.015 1.55-.28 2.2-.39-.348.474-.834.894-1.414 1.207-.606.333-1.27.52-1.694.474-.256-.024-.505-.11-.76-.16l.72-.73zm9.63-12.065c.007.008.497.717.487.717.478.685 1.313 1.93 2.058 3.09l.25.377c.62 1 1.172 1.95 1.52 2.894.4 1.087.425 2.027.09 2.957-.355.92-1.333 1.72-1.798 2.064l.4.585c.627-.413 2.398-1.394 4.65-1.61 2.167-.21 3.828.237 4.47.463l.293-.95c-.366-.142-.994-.423-1.607-.92-.106-.086-.18-.157-.255-.204-.366-.286-.658-.516-2.078-2.026-1.9-2.02-5.956-7.277-6.003-7.314l-.344-.44.57-.04c1.855-.082 3.85-.863 5.354-2.04 1.314-1.03 2.887-2.915 2.887-5.944 0-1.954-.738-3.872-2.03-5.262-.98-1.088-2.79-2.4-5.685-2.4-.848 0-1.644.056-2.363.17 0 0-.027 3.322 0 3.322 2.296.022 3.7 1.048 4.51 1.9.93 1.02 1.52 2.374 1.52 3.553 0 3.713-3.3 5.406-6.41 5.453l-7.732-.033.02-.3.013-.914c.03-2.286.073-4.24 1.293-5.925.17-.23.356-.455.56-.68v-3.07c-.898.426-1.796.775-3.338 1.108-1.35.303-2.687.226-3.37.142.354.982 1.172 3.27 1.377 5.1.626 5.77.265 9.302-.458 12.823-.387 1.92-1.007 3.782-1.45 4.994l.508.473c.712-.418 1.804-.964 3.166-1.317.895-.242 1.924-.418 3.042-.553l.468-1.41c-.183-.132-.355-.267-.52-.397-1.292-1.065-1.292-2.943-1.292-3.75 0-.975.01-4.357.01-4.39v-.295h7.217zM159.216 62.8l6.635-6.62c-.037-.718-.092-1.5-.168-2.318L150.546 68.98c.106.703.248 1.395.427 2.043l6.752-6.74c.014-.275.044-.516.066-.704l.11-.78h1.315zm37.352.588l-5.744 5.752c-.23-.137-.99-.553-1.574-.885l6.97-6.982c.15.723.27 1.43.347 2.115zm-18.59 1.922v-.03l1.348-1.35c.277.482.613 1.092.89 1.58l-2.73 2.752c.097-.336.492-1.763.492-2.952zm-12.825.055c-.007.005-.186.622-.412 1.384l-1.264 1.278c-.01-.184-.044-.377-.044-.547 0-.534.066-.992.113-1.277 0-.015.172-.71.234-.96l1.705-1.713c-.103.62-.208 1.228-.333 1.835zm7.567 2.066c.036-.184.008-.04-.015.082l.014-.08zm15.222-.14c-.402-.38-.876-.84-1.256-1.21l8.614-8.632c.14.66.292 1.327.475 2.007l-7.833 7.836zm-37.593-1.113c0-.576.02-1.18.075-1.802l14.402-14.396c.183.687.373 1.408.526 1.964l-14.99 14.962c-.007-.236-.014-.48-.014-.73zm21.51.467v.026l-.01-.01.01-.016zm.08-4.82c.008.82.016 1.733.02 2.447l-.936.952c-.153-.64-.168-1.267-.168-1.64v-.673l1.085-1.086zm-6.152-.868l-4.06 4.066c-.13-.037-.26-.09-.363-.15-.328-.207-.61-.7-.822-1.153l5.354-5.33c-.007.915-.044 1.757-.11 2.566zm19.824 3.916c-.35-.43-.727-.886-1.113-1.35l10.125-10.15c.087.7.185 1.416.306 2.156l-9.318 9.344zm-7.635-1.86v-1.246c.182.28.34.528.485.754l-.485.493zm16.41-14.144v.207c0 .7.018 1.43.066 2.196l-10.976 11.002c-.395-.484-.767-.937-1.114-1.365l12.024-12.04zm-43.133 10.866c.117-.422.22-.847.325-1.27l8.807-8.814h.427s.325-.622.325-.626c0-.007.058-.107.145-.252l2.487-2.49c.274-.05.566-.072.912-.072h1.633l-.635.632c-.767 0-1.403-.004-1.42-.004l-.286-.007.285 1.078s.034.107.078.273l-13.544 13.555c.128-.65.28-1.313.46-2zm19.605.922c.003-.418.003-.745.003-.855h.852l-.856.856zm10.067-1.497c.39-.06.778-.154 1.157-.258l-.748.752c-.168-.2-.3-.363-.41-.495zm-.62-3.297c-.705.284-1.486.466-2.33.508v-.594l5.02-5c.107.368.187.72.187 1.063 0 .53-.106 1.002-.263 1.46l-2.613 2.563zm-3.228.413V42.682h-17.73v6.08h.938c.114-.493.45-1.493 1.336-2.354.8-.78 1.687-1.106 3.06-1.106h8.152v10.974h4.243zm-6.064-3.02l.925-.918V54.8l-1.062 1.063c.014-.924.03-1.796.138-2.606zm-12.565-6.403v2.485l-6.3 6.296c.163-.995.28-1.95.37-2.858l5.93-5.923zm19.527 4.187l2.924-2.93c.403.26.758.532.995.8.12.118.208.262.317.392l-4.235 4.206V51.04zm40.164-4.954c.6-.28 1.42-.48 2.202-.7 2.13-.597 4.2-1.063 4.04-2.58-.063-.51-.125-.977-.553-1.673 1.755-.443 3.26-1.04 3.87-2.25.492-.95.647-2.424 0-3.866-.204-.46-1.11-.71-1.552-.516-.457.206-.665.736-.457 1.194.39.902.495 1.58.26 2.016-.467.907-2.417 1.358-4.593 1.802 0 0-1.216.287-1.57.41-.507.187-.88.365-1.125.523-.29.168-.46.014-.51-.086-.06-.105-.154-.222-.245-.34-.198-.243-.227-.26-.464-.433-.37-.256-.194-.634.058-.692 1.76-.378 2.2-.44 3.2-.823.737-.27 1.314-.9 1.435-1.814.014-.126.03-.268.03-.416 0-.87-.34-1.894-1.067-2.425-.047-.023-.106-.045-.15-.078 0-.063.01-.126.01-.198 0-.178-.01-.364-.053-.54-.205-1.07-1.027-1.828-2.104-1.973-1.288-.167-1.832.1-2.91.632l-.828.402c-.135.053-.497.086-.625-.32-.116-.41-.47-.848-1.14-1.133l-.557-.247c-.352-.163-.28-.79.313-1.214 1.21-.865 1.278-.795 2.297-1.003l.2-.034c1.072-.222 1.44-.584 1.91-1.166l.743-.82c.854-.782 2.588-1.08 4.114-1.35l.668-.11c1.334-.236 1.95-.73 2.534-1.204.35-.285.687-.558 1.23-.816.99-.462 1.765-.624 2.523-.787 0 0 .052-.015.066-.015.01.195.02.37.02.58 0 .883-.196 1.732-.575 2.506-.14.28-.42 1.026-.51 1.522.21.024.645 0 .89.064 1.116.296 3.067.467 4.57.296-.167.783-.485 1.7-1.325 2.377l-.91.773.925.635c.377.31.974.49 1.72.728 1.085.34 2.483.777 3.297 1.624-.61.172-1.197.452-1.632.898-.41.434-.635.975-.635 1.54 0 .12.018.248.025.37.2 1.173 1.07 1.96 1.983 2.788.927.84 1.873 1.713 2.348 3.098-1.643-.076-3.838.295-4.728 1.99-.41.778-.464 1.486-.566 2.15-.066.392.007.954.077 1.307-3.512-.843-6.193 3.76-5.7 6.267-1.055-.214-1.756-.915-2.676-2.678l-.545-1.06s-2.968.57-4.29 2.957c-.65-.703-.968-1.533-.968-2.783 0-.23.106-2.21.106-2.21s-2.414.202-4.433 1.62c.102-.74 1.06-2.113 2.334-2.718zm-110.595-4.842c.486-1.385 1.424-2.258 2.36-3.098.92-.83 1.785-1.615 1.986-2.788.016-.122.023-.25.023-.37 0-.565-.223-1.106-.633-1.54-.43-.446-1.022-.726-1.628-.898.818-.847 2.206-1.285 3.29-1.624.745-.238 1.34-.42 1.727-.728l.923-.635-.92-.774c-.82-.677-1.15-1.595-1.318-2.378 1.494.17 3.443 0 4.575-.296.245-.064.68-.04.888-.064-.092-.496-.373-1.243-.515-1.52-.373-.775-.577-1.624-.577-2.506 0-.21.014-.386.03-.58.006 0 .054.014.054.014.763.163 1.537.325 2.52.787.554.258.88.53 1.24.816.596.473 1.202.968 2.528 1.204l.664.11c1.54.27 3.276.568 4.115 1.35l.753.82c.47.582.836.944 1.91 1.166l.197.034c1.01.208 1.088.138 2.307 1.002.58.423.662 1.05.315 1.213l-.564.248c-.67.286-1.03.723-1.146 1.133-.128.407-.49.374-.614.32l-.836-.4c-1.074-.533-1.618-.8-2.907-.634-1.088.144-1.906.903-2.118 1.973-.036.175-.05.36-.05.54 0 .07.014.134.014.196-.045.032-.1.054-.14.077-.744.53-1.074 1.556-1.074 2.425 0 .148.015.29.03.416.117.913.694 1.545 1.43 1.814 1.01.383 1.44.445 3.196.823.263.058.442.436.073.692-.248.173-.266.19-.467.432-.098.118-.19.235-.248.34-.063.1-.234.253-.515.085-.245-.158-.614-.336-1.125-.523-.354-.123-1.57-.41-1.57-.41-2.173-.444-4.126-.895-4.587-1.802-.237-.435-.138-1.114.257-2.016.204-.458 0-.988-.453-1.193-.453-.193-1.352.057-1.567.517-.636 1.442-.49 2.915 0 3.867.62 1.21 2.13 1.806 3.87 2.25-.423.695-.478 1.16-.536 1.672-.164 1.517 1.906 1.983 4.035 2.58.773.22 1.598.42 2.2.7 1.268.605 2.228 1.98 2.326 2.72-2.01-1.42-4.432-1.62-4.432-1.62s.113 1.98.113 2.208c0 1.25-.325 2.08-.968 2.783-1.33-2.388-4.3-2.957-4.3-2.957l-.54 1.06c-.923 1.762-1.624 2.463-2.676 2.677.504-2.507-2.184-7.11-5.703-6.266.074-.352.143-.914.085-1.305-.106-.665-.158-1.373-.577-2.15-.88-1.696-3.075-2.067-4.733-1.99zm86.93 5.264l-5.616 5.627c.086-.508.148-1.03.148-1.58 0-.324-.05-.642-.09-.968l5.878-5.862c-.135.82-.245 1.748-.32 2.783zm-41.796 1.36l5.77-5.765v2.477l-5.77 5.78c.006-.436.017-.863.017-1.285 0-.412-.004-.818-.018-1.208zm25.297.9v-1.473c.49 0 .923.06 1.325.147l-1.325 1.326zm17.673-8.685c-.065.203-.138.438-.22.725l-6.918 6.918c-.197-.592-.438-1.164-.76-1.695l7.008-7.013c.343.433.657.798.89 1.066zm-25.904 6.127c-.037.016-.077.036-.124.053-.46.21-.87.393-1.264.468-.087.015-.208.03-.343.04l.562-.56h1.17zm-4.13-13.538L152.54 45.714c-.08-.8-.168-1.526-.286-2.187l10.682-10.66c.887-.07 1.785-.14 2.68-.195zm28.157 5.06l-6.993 6.983c-.007-.007-.014-.018-.02-.027l.003.006c-.282-.318-.712-.738-1.285-1.146l7.283-7.293c.33.505.666 1.004 1.013 1.476zm-2.22-3.862c.11.3.238.607.39.92l-7.96 7.973c-.6-.263-1.24-.46-1.913-.582l8.555-8.534c.36.08.67.145.93.224zm-2.873-.535l-8.69 8.7c-.618.05-1.732.154-2.013.18v-.428h-.248l8.714-8.713c.793.086 1.55.17 2.236.26zm-17.926 8.452l9.187-9.217c-.816-.046-1.61-.087-2.358-.124l-9.32 9.34h2.492zm4.715 0l8.904-8.897c-.755-.068-1.526-.13-2.3-.174l-9.063 9.07h2.46zm-9.493 0l9.436-9.425c-.675-.026-1.255-.042-1.72-.042h-.28c-.142 0-.293 0-.46.01l-9.44 9.457h2.464zm-4.743 0l9.4-9.383c-.79.024-1.673.07-2.597.12l-9.27 9.263h2.467zm-7.91-4.056l4.277-4.274c.83-.125 1.8-.245 2.838-.353l-8.563 8.554c-.15-.675-.306-1.198-.427-1.574.438-.507 1.154-1.362 1.877-2.352zM193.292 7.4c-.992 0-1.814.804-1.814 1.806 0 .06.026.144.026.216-.672.62-1.603 1.457-2.45 2.25.267-1.215.56-2.552.766-3.52.705-.23 1.228-.9 1.228-1.685 0-1.002-.814-1.814-1.797-1.814-.984 0-1.805.813-1.805 1.815 0 .194.052.402.106.583-.678.885-1.674 2.105-2.547 3.195.09-1.42.208-3.006.307-4.13.576-.307.985-.9.985-1.596 0-.992-.803-1.806-1.8-1.806-1 0-1.79.815-1.79 1.807 0 .294.07.56.19.804-.634 1.076-1.588 2.634-2.384 3.96-.116-1.5-.233-3.224-.317-4.434.516-.314.86-.876.86-1.534 0-.982-.812-1.79-1.798-1.79-.997 0-1.792.808-1.792 1.79 0 .373.09.686.266.957-.487 1.153-1.235 2.864-1.85 4.287-.474-1.823-1.057-4.04-1.303-5.066.388-.317.632-.808.632-1.366 0-.992-.825-1.795-1.816-1.795-.982 0-1.804.802-1.804 1.794 0 .587.314 1.104.73 1.42-.277 1.054-.836 3.25-1.296 5.013-.625-1.442-1.374-3.207-1.863-4.363.126-.265.21-.55.21-.882 0-.982-.804-1.79-1.793-1.79-.997 0-1.797.808-1.797 1.79 0 .686.387 1.264.917 1.57-.088 1.217-.194 2.916-.293 4.397-.832-1.352-1.785-2.942-2.457-4.016.113-.225.18-.486.18-.747 0-.992-.8-1.806-1.8-1.806-.98 0-1.787.815-1.787 1.807 0 .736.453 1.348 1.06 1.627.098 1.125.207 2.686.317 4.1-.902-1.13-1.91-2.375-2.626-3.26.06-.173.09-.343.09-.52 0-1-.808-1.813-1.794-1.813-.993 0-1.796.813-1.796 1.815 0 .804.558 1.496 1.3 1.718.207.97.496 2.276.77 3.486-.895-.814-1.84-1.686-2.52-2.322 0-.053.015-.098.015-.144 0-1.002-.807-1.806-1.81-1.806-.987 0-1.798.804-1.798 1.806 0 .916.72 1.676 1.625 1.777.946 2.624 2.787 7.758 2.823 7.866 1.077 5.97 1.592 6.542 1.742 6.733.963 1.093 9.81 2.515 15.516 2.515 5.71 0 14.54-1.422 15.512-2.516.164-.192.657-.764 1.756-6.734.015-.108 1.875-5.245 2.82-7.88.865-.125 1.55-.858 1.55-1.762 0-1.002-.824-1.806-1.8-1.806zm-64.413 20.535s-1.05-1.75-2.49-1.775c-1.446-.024-2.607-.34-2.983-.86 0 0 .996 1.687.31 2.478 1.27-.376 1.9-.358 3.046-.336 1.135.022 1.49.033 2.117.493zm89.33 0s1.06-1.75 2.493-1.775c1.45-.024 2.6-.34 2.987-.86 0 0-.998 1.687-.307 2.478-1.274-.376-1.89-.358-3.045-.336-1.146.022-1.498.033-2.13.493zm-44.794-1.76c-8.495 0-14.304-1.313-14.304-2.37 0-1.07 6.324-2.74 14.303-2.74 7.992 0 14.295 1.67 14.295 2.74 0 1.057-5.788 2.37-14.295 2.37zm14.817-4.46c-3.556-1.525-9.815-2.693-14.777-2.693-4.93 0-11.405 1.124-14.775 2.678-.106-.396-.186-.827-.282-1.266 4.39-1.953 10.776-2.762 15.017-2.762 4.17 0 11.192 1.04 15.117 2.65-.113.474-.212.967-.3 1.393zm.665-3.366l-.014.074c-.02.14-.044.267-.05.41-3.897-1.583-10.225-2.938-15.363-2.938-5.21 0-11.733 1.355-15.363 3.01-.025-.164-.058-.317-.094-.48v-.075s-1.154-3.215-2.155-5.975c1.46 1.323 5.11 4.656 5.11 4.656s-1.09-4.866-1.52-6.873c1.438 1.78 4.783 5.958 4.783 5.958s-.41-5.414-.587-7.784l4.214 6.968s.387-5.56.555-8.073c.982 2.26 3.056 7.096 3.056 7.096s1.384-5.275 1.987-7.66c.6 2.303 1.976 7.66 1.976 7.66s2.08-4.835 3.065-7.095c.165 2.512.56 8.073.56 8.073s2.887-4.785 4.212-6.97l-.587 7.785s3.355-4.178 4.788-5.958c-.432 2.007-1.502 6.873-1.502 6.873s3.634-3.333 5.09-4.656c-.992 2.76-2.16 5.975-2.16 5.975z" fill="#B5985A" fill-rule="evenodd"/>
</svg>
