<svg width="50" height="50" viewBox="0 0 50 50" fill="none" xmlns="http://www.w3.org/2000/svg">
<circle cx="25" cy="25" r="25" fill="#EEAE83" fill-opacity="0.2"/>
<path d="M12.7127 6.89746C13.4342 6.89746 14.0192 7.48239 14.0192 8.20391V9.07488C14.0192 10.7585 15.384 12.1233 17.0675 12.1233H32.745C34.4285 12.1233 35.7933 10.7585 35.7933 9.07488V8.20391C35.7933 7.48239 36.3783 6.89746 37.0998 6.89746C37.8213 6.89746 38.4062 7.48239 38.4062 8.20391V9.07488C38.4062 12.2015 35.8716 14.7362 32.745 14.7362H17.0675C13.9409 14.7362 11.4062 12.2015 11.4062 9.07488V8.20391C11.4062 7.48239 11.9912 6.89746 12.7127 6.89746Z" fill="#ED7D31"/>
<path fill-rule="evenodd" clip-rule="evenodd" d="M19.5899 16.4785H30.2226C31.7878 16.4785 33.0928 16.4784 34.1289 16.6177C35.2225 16.7648 36.2098 17.0882 37.0031 17.8816C37.7966 18.675 38.12 19.6623 38.2671 20.7559C38.4064 21.7919 38.4062 23.097 38.4062 24.6621V26.5852C38.4062 28.1504 38.4064 29.4554 38.2671 30.4915C38.12 31.5851 37.7966 32.5724 37.0031 33.3657C36.2098 34.1592 35.2225 34.4827 34.1289 34.6297C33.0928 34.769 31.7878 34.7689 30.2228 34.7689H19.5899C18.0248 34.7689 16.7197 34.769 15.6836 34.6297C14.59 34.4827 13.6027 34.1592 12.8093 33.3657C12.0159 32.5724 11.6925 31.5851 11.5454 30.4915C11.4062 29.4554 11.4062 28.1504 11.4063 26.5852V24.6621C11.4062 23.097 11.4062 21.7919 11.5454 20.7559C11.6925 19.6623 12.0159 18.675 12.8093 17.8816C13.6027 17.0882 14.59 16.7648 15.6836 16.6177C16.7197 16.4784 18.0248 16.4785 19.5899 16.4785ZM16.0318 19.2073C15.2279 19.3154 14.8839 19.5022 14.6569 19.7292C14.4299 19.9562 14.2431 20.3002 14.1351 21.104C14.0219 21.9455 14.0192 23.0735 14.0192 24.7527V26.4947C14.0192 28.1739 14.0219 29.302 14.1351 30.1433C14.2431 30.9472 14.4299 31.2913 14.6569 31.5182C14.8839 31.7452 15.2279 31.9319 16.0318 32.0401C16.8732 32.1532 18.0012 32.156 19.6804 32.156H30.1321C31.8113 32.156 32.9394 32.1532 33.7807 32.0401C34.5846 31.9319 34.9286 31.7452 35.1556 31.5182C35.3826 31.2913 35.5693 30.9472 35.6775 30.1433C35.7906 29.302 35.7933 28.1739 35.7933 26.4947V24.7527C35.7933 23.0735 35.7906 21.9455 35.6775 21.104C35.5693 20.3002 35.3826 19.9562 35.1556 19.7292C34.9286 19.5022 34.5846 19.3154 33.7807 19.2073C32.9394 19.0942 31.8113 19.0914 30.1321 19.0914H19.6804C18.0012 19.0914 16.8732 19.0942 16.0318 19.2073Z" fill="#ED7D31"/>
<path d="M17.0675 36.5103C13.9409 36.5103 11.4062 39.0449 11.4062 42.1715V43.0425C11.4062 43.764 11.9912 44.349 12.7127 44.349C13.4342 44.349 14.0192 43.764 14.0192 43.0425V42.1715C14.0192 40.488 15.384 39.1232 17.0675 39.1232H32.745C34.4285 39.1232 35.7933 40.488 35.7933 42.1715V43.0425C35.7933 43.764 36.3783 44.349 37.0998 44.349C37.8213 44.349 38.4062 43.764 38.4062 43.0425V42.1715C38.4062 39.0449 35.8716 36.5103 32.745 36.5103H17.0675Z" fill="#ED7D31"/>
</svg>
