<svg width="51" height="50" viewBox="0 0 51 50" fill="none" xmlns="http://www.w3.org/2000/svg">
<circle cx="25.8008" cy="25" r="25" fill="#EEAE83" fill-opacity="0.2"/>
<path d="M10.8008 29.6285C11.4888 30.4995 12.251 31.309 13.079 32.0481C13.0764 31.9755 13.0663 31.9068 13.0663 31.8342C13.0712 30.5417 13.4672 29.281 14.202 28.2178C14.9368 27.1545 15.9761 26.3385 17.1833 25.877C17.4054 25.7929 17.5995 25.6486 17.7438 25.4601C17.8881 25.2716 17.9769 25.0465 18.0001 24.8102C18.0232 24.574 17.9799 24.3359 17.875 24.123C17.77 23.91 17.6077 23.7307 17.4062 23.6051C16.8556 23.265 16.4016 22.7891 16.0877 22.2232C15.7737 21.6573 15.6103 21.0203 15.6132 20.3731C15.6104 19.6312 15.8246 18.9046 16.2293 18.2829C16.6341 17.6611 17.2118 17.1712 17.8914 16.8735C18.571 16.5758 19.3227 16.4833 20.0542 16.6073C20.7857 16.7313 21.465 17.0665 22.0084 17.5715C22.8045 17.1146 23.677 16.806 24.5834 16.661C24.0866 15.9669 23.4552 15.38 22.7268 14.9351C21.9983 14.4902 21.1878 14.1965 20.3435 14.0715C19.4992 13.9465 18.6384 13.9927 17.8123 14.2074C16.9862 14.4221 16.2118 14.8009 15.5352 15.3212C14.8586 15.8415 14.2937 16.4926 13.8741 17.2359C13.4544 17.9791 13.1887 18.7992 13.0927 19.6473C12.9967 20.4954 13.0724 21.3542 13.3153 22.1724C13.5582 22.9906 13.9633 23.7516 14.5065 24.4099C12.6738 25.6369 11.3551 27.4938 10.8008 29.6285ZM40.8008 29.6285C40.247 27.4929 38.9283 25.6349 37.095 24.4074C37.6365 23.7488 38.0399 22.9882 38.2815 22.1706C38.5231 21.353 38.5978 20.4951 38.5012 19.6481C38.4046 18.801 38.1387 17.982 37.7193 17.2398C37.2998 16.4976 36.7355 15.8473 36.0597 15.3275C35.3839 14.8078 34.6105 14.4292 33.7855 14.2143C32.9605 13.9994 32.1007 13.9526 31.2572 14.0766C30.4137 14.2007 29.6038 14.493 28.8756 14.9364C28.1474 15.3797 27.5157 15.9649 27.0182 16.6572C27.9246 16.8022 28.7971 17.1107 29.5931 17.5677C29.9833 17.2088 30.444 16.9353 30.9459 16.7646C31.4478 16.5939 31.9797 16.5298 32.5078 16.5763C33.0359 16.6228 33.5484 16.779 34.0127 17.0348C34.477 17.2907 34.8828 17.6406 35.2042 18.0621C35.5256 18.4837 35.7556 18.9676 35.8793 19.4831C36.0031 19.9985 36.018 20.5341 35.9231 21.0557C35.8281 21.5772 35.6254 22.0732 35.328 22.512C35.0305 22.9507 34.6447 23.3226 34.1954 23.6038C33.9939 23.7294 33.8315 23.9088 33.7266 24.1217C33.6217 24.3347 33.5783 24.5727 33.6015 24.8089C33.6247 25.0452 33.7134 25.2703 33.8577 25.4588C34.0021 25.6473 34.1962 25.7917 34.4182 25.8757C35.6257 26.3373 36.6651 27.1535 37.4 28.217C38.1348 29.2805 38.5306 30.5415 38.5353 31.8342C38.5353 31.9068 38.5251 31.9755 38.5226 32.0468C39.3505 31.3081 40.1127 30.499 40.8008 29.6285Z" fill="#ED7D31"/>
<path d="M34.6565 34.743C34.5181 33.4361 34.0946 32.1756 33.4158 31.0503C32.737 29.925 31.8194 28.9624 30.7279 28.2306C31.6642 27.0942 32.1737 25.6661 32.1682 24.1937C32.1676 23.1735 31.9219 22.1684 31.4517 21.263C30.9816 20.3576 30.3008 19.5785 29.4666 18.9911C28.6325 18.4038 27.6694 18.0255 26.6585 17.8881C25.6476 17.7507 24.6185 17.8582 23.6579 18.2016C22.6972 18.5449 21.8331 19.1141 21.1383 19.8611C20.4436 20.6082 19.9385 21.5112 19.6656 22.4943C19.3928 23.4773 19.3601 24.5115 19.5704 25.5097C19.7806 26.508 20.2277 27.4411 20.8739 28.2306C19.7824 28.9624 18.8649 29.925 18.186 31.0503C17.5072 32.1756 17.0837 33.4361 16.9453 34.743C17.7537 35.163 18.5912 35.5243 19.4515 35.8242C19.4489 35.7668 19.4336 35.7134 19.4336 35.6548C19.439 34.3624 19.835 33.1019 20.5698 32.0387C21.3046 30.9755 22.3437 30.1594 23.5507 29.6976C23.7731 29.6137 23.9675 29.4693 24.1121 29.2807C24.2566 29.0921 24.3455 28.8668 24.3687 28.6303C24.3919 28.3938 24.3485 28.1555 24.2433 27.9424C24.1381 27.7293 23.9754 27.5499 23.7736 27.4245C23.2228 27.0848 22.7687 26.6092 22.4547 26.0435C22.1407 25.4777 21.9774 24.8408 21.9805 24.1937C21.9805 23.1805 22.383 22.2088 23.0995 21.4923C23.816 20.7759 24.7877 20.3734 25.8009 20.3734C26.8141 20.3734 27.7859 20.7759 28.5023 21.4923C29.2188 22.2088 29.6213 23.1805 29.6213 24.1937C29.6244 24.8408 29.4611 25.4777 29.1471 26.0435C28.8331 26.6092 28.379 27.0848 27.8282 27.4245C27.6264 27.5499 27.4637 27.7293 27.3585 27.9424C27.2533 28.1555 27.2099 28.3938 27.2331 28.6303C27.2563 28.8668 27.3452 29.0921 27.4897 29.2807C27.6343 29.4693 27.8287 29.6137 28.0511 29.6976C29.2581 30.1594 30.2972 30.9755 31.032 32.0387C31.7668 33.1019 32.1628 34.3624 32.1682 35.6548C32.1682 35.7134 32.1529 35.7668 32.1516 35.8242C33.0114 35.5243 33.8485 35.1629 34.6565 34.743Z" fill="#ED7D31"/>
</svg>
