<svg width="51" height="50" viewBox="0 0 51 50" fill="none" xmlns="http://www.w3.org/2000/svg">
<circle cx="25.6016" cy="25" r="25" fill="#EEAE83" fill-opacity="0.2"/>
<path d="M28.3559 28.4676V17.3565M28.3559 28.4676L36.8313 33.3107C37.3869 33.6282 38.0781 33.227 38.0781 32.5872V13.2369C38.0781 12.5971 37.3869 12.1959 36.8313 12.5134L28.3559 17.3565M28.3559 28.4676H18.6337C15.5654 28.4676 13.0781 25.9802 13.0781 22.912C13.0781 19.8438 15.5654 17.3565 18.6337 17.3565H28.3559" stroke="#ED7D31" stroke-width="2.08333"/>
<path d="M19.6844 35.8285L18.6328 28.4673H24.1884L25.1289 35.0508C25.3656 36.7074 24.08 38.1895 22.4066 38.1895C21.0382 38.1895 19.878 37.1833 19.6844 35.8285Z" stroke="#ED7D31" stroke-width="2.08333"/>
</svg>
