<svg width="51" height="50" viewBox="0 0 51 50" fill="none" xmlns="http://www.w3.org/2000/svg">
<circle cx="25.3984" cy="25" r="25" fill="#EEAE83" fill-opacity="0.2"/>
<path d="M25.3984 19.8889C24.8832 19.8969 24.3718 19.9788 23.8798 20.1319C24.1074 20.5322 24.2286 20.9841 24.2318 21.4445C24.2318 21.8019 24.1614 22.1559 24.0246 22.4862C23.8877 22.8165 23.6872 23.1166 23.4344 23.3694C23.1817 23.6221 22.8816 23.8227 22.5513 23.9595C22.221 24.0963 21.867 24.1667 21.5095 24.1667C21.0491 24.1635 20.5973 24.0423 20.197 23.8147C19.8813 24.9098 19.9181 26.0765 20.3022 27.1496C20.6864 28.2226 21.3984 29.1476 22.3375 29.7934C23.2765 30.4393 24.395 30.7734 25.5344 30.7483C26.6739 30.7232 27.7766 30.3402 28.6862 29.6536C29.5959 28.967 30.2665 28.0115 30.6031 26.9226C30.9396 25.8337 30.925 24.6665 30.5613 23.5864C30.1976 22.5062 29.5033 21.5679 28.5767 20.9043C27.6501 20.2407 26.5382 19.8855 25.3984 19.8889ZM39.2293 24.6236C36.5931 19.4801 31.3742 16 25.3984 16C19.4227 16 14.2023 19.4825 11.5676 24.6241C11.4564 24.8441 11.3984 25.0871 11.3984 25.3336C11.3984 25.5801 11.4564 25.8231 11.5676 26.0431C14.2038 31.1866 19.4227 34.6667 25.3984 34.6667C31.3742 34.6667 36.5946 31.1842 39.2293 26.0426C39.3405 25.8226 39.3984 25.5796 39.3984 25.3331C39.3984 25.0866 39.3405 24.8436 39.2293 24.6236ZM25.3984 32.3334C20.6029 32.3334 16.2065 29.6597 13.8324 25.3333C16.2065 21.007 20.6025 18.3333 25.3984 18.3333C30.1944 18.3333 34.5903 21.007 36.9645 25.3333C34.5908 29.6597 30.1944 32.3334 25.3984 32.3334Z" fill="#ED7D31"/>
</svg>
