<svg width="51" height="50" viewBox="0 0 51 50" fill="none" xmlns="http://www.w3.org/2000/svg">
<circle cx="25.1992" cy="25" r="25" fill="#EEAE83" fill-opacity="0.2"/>
<path d="M36.0881 37.5084H14.3103C12.5921 37.5084 11.1992 36.1155 11.1992 34.3973V20.3972C11.1992 18.679 12.5921 17.2861 14.3103 17.2861H36.0881C37.8064 17.2861 39.1992 18.679 39.1992 20.3972V34.3973C39.1992 36.1155 37.8064 37.5084 36.0881 37.5084Z" stroke="#ED7D31" stroke-width="2.33333"/>
<path d="M32.1997 28.1747C31.7702 28.1747 31.4219 27.8264 31.4219 27.3969C31.4219 26.9674 31.7702 26.6191 32.1997 26.6191C32.6291 26.6191 32.9774 26.9674 32.9774 27.3969C32.9774 27.8264 32.6291 28.1747 32.1997 28.1747Z" fill="#ED7D31" stroke="#ED7D31" stroke-width="2.33333" stroke-linecap="round" stroke-linejoin="round"/>
<path d="M34.5326 17.2856V15.1128C34.5326 13.0687 32.595 11.5801 30.6199 12.1067L13.5087 16.6697C12.1468 17.0329 11.1992 18.2663 11.1992 19.6758V20.3967" stroke="#ED7D31" stroke-width="2.33333"/>
</svg>
