<svg xmlns="http://www.w3.org/2000/svg" width="60" height="60" viewBox="0 0 60 60">
  <g id="Group_238" data-name="Group 238" transform="translate(12480 6200)">
    <rect id="Rectangle_56" data-name="Rectangle 56" width="60" height="60" rx="12" transform="translate(-12480 -6200)" fill="#fcefe6"/>
    <path id="Path_11" d="M17.023,21.169A5.785,5.785,0,0,1,18.3,25a6.369,6.369,0,0,1-1.361,3.828,7.126,7.126,0,0,1-3.232,2.212,6.38,6.38,0,0,1-4.168-.17A6.78,6.78,0,0,1,6.39,28.484a9.151,9.151,0,0,1-1.7-3.828,8.737,8.737,0,0,1,.34-4.423,9.19,9.19,0,0,1,2.127-3.488,10.976,10.976,0,0,1,7.571-3.062,9.574,9.574,0,0,1,4.083.936A11.8,11.8,0,0,1,22.126,17a13.606,13.606,0,0,1,2.382,3.4,14.1,14.1,0,0,1,1.361,4.168,13.334,13.334,0,0,1,.085,4.508,11.877,11.877,0,0,1-1.276,4.168,15.969,15.969,0,0,1-2.3,3.573,16.958,16.958,0,0,1-3.147,2.892,16.008,16.008,0,0,1-3.743,2.042,23.358,23.358,0,0,1-4.168,1.191A8.57,8.57,0,0,1,9.2,43.2a18.513,18.513,0,0,0,4.849-.085,16.437,16.437,0,0,0,4.508-1.446,17.563,17.563,0,0,0,7.06-6.125,16.843,16.843,0,0,0,2.042-4.338c.085-.17.085-.425.17-.6a14.515,14.515,0,0,0,1.446,3.317,13.981,13.981,0,0,0,2.212,2.807c.51.51,1.021.936,1.531,1.361a14.871,14.871,0,0,1-1.531-2.467,26.285,26.285,0,0,1-1.191-2.722,16.054,16.054,0,0,1-.766-2.892,12.311,12.311,0,0,1-.085-3.062c.085-1.021.255-2.042.425-3.062l.255-1.531c.085-.17.085-.425.17-.6a.849.849,0,0,1,.34-.425,1.658,1.658,0,0,1,.681-.085,2.355,2.355,0,0,1,.766.085c.255,0,.51.085.766.085h.766c1.021,0,1.956-.085,2.892-.17a7.654,7.654,0,0,0,4.508-2.637,3.6,3.6,0,0,0,.425-.6,15.18,15.18,0,0,1-3.658,1.531,9.431,9.431,0,0,1-4.083.34,6.671,6.671,0,0,1-2.042-.766,13.544,13.544,0,0,1,5.7-5.019,9.843,9.843,0,0,1,3.828-1.021,12.017,12.017,0,0,1,7.571,2.042,1.493,1.493,0,0,1,.425.34,5.982,5.982,0,0,0-1.7-1.871,10.233,10.233,0,0,0-2.3-1.361,13.645,13.645,0,0,0-2.637-.851,15.662,15.662,0,0,0-2.807-.255,9.587,9.587,0,0,0-2.722.425,9.151,9.151,0,0,0-2.467,1.106,12.844,12.844,0,0,0-2.212,1.531,20.338,20.338,0,0,0-1.871,1.956,17.071,17.071,0,0,0-1.446,2.3A16.541,16.541,0,0,0,27.911,21c-.085.255-.17.425-.255.681a18.191,18.191,0,0,0-1.361-3.317,15.192,15.192,0,0,0-4.423-5.189,12.581,12.581,0,0,0-2.977-1.616,11.629,11.629,0,0,0-3.4-.766,12.61,12.61,0,0,0-3.573.17A12.4,12.4,0,0,0,8.6,11.982,11.616,11.616,0,0,0,3.668,16.32a13.257,13.257,0,0,0-1.446,3.147A10.536,10.536,0,0,0,1.8,23.125a12.082,12.082,0,0,0,.681,3.488,12.024,12.024,0,0,0,1.616,2.892,9.832,9.832,0,0,0,2.382,2.212,7.942,7.942,0,0,0,3.062,1.191,9.646,9.646,0,0,0,3.488-.17,7.72,7.72,0,0,0,2.892-1.446,7.533,7.533,0,0,0,1.956-2.382,7.578,7.578,0,0,0,.766-3.317,5.92,5.92,0,0,0-.936-3.147,1.411,1.411,0,0,0-.681-1.276c.255.34.425.34,0,0Z" transform="translate(-12473.774 -6196.74)"/>
  </g>
</svg>
