<svg width="20" height="20" viewBox="0 0 20 20" fill="none" xmlns="http://www.w3.org/2000/svg">
<path d="M4.3901 1.08984C4.71773 1.08984 4.98333 1.35544 4.98333 1.68307V2.07856C4.98333 2.84303 5.60305 3.46276 6.36753 3.46276H13.4863C14.2507 3.46276 14.8705 2.84303 14.8705 2.07856V1.68307C14.8705 1.35544 15.1361 1.08984 15.4637 1.08984C15.7913 1.08984 16.0569 1.35544 16.0569 1.68307V2.07856C16.0569 3.49829 14.906 4.64921 13.4863 4.64921H6.36753C4.9478 4.64921 3.79688 3.49829 3.79688 2.07856V1.68307C3.79688 1.35544 4.06247 1.08984 4.3901 1.08984Z" fill="white"/>
<path fill-rule="evenodd" clip-rule="evenodd" d="M7.51285 5.44141H12.3409C13.0516 5.44138 13.6442 5.44137 14.1147 5.50461C14.6113 5.57138 15.0596 5.71824 15.4198 6.0785C15.7801 6.43877 15.927 6.88709 15.9937 7.38365C16.057 7.8541 16.0569 8.4467 16.0569 9.15739V10.0306C16.0569 10.7413 16.057 11.3339 15.9937 11.8044C15.927 12.3009 15.7801 12.7493 15.4198 13.1095C15.0596 13.4698 14.6113 13.6166 14.1147 13.6834C13.6442 13.7467 13.0516 13.7466 12.341 13.7466H7.51286C6.80221 13.7466 6.20956 13.7467 5.73912 13.6834C5.24256 13.6166 4.79423 13.4698 4.43397 13.1095C4.07371 12.7493 3.92685 12.3009 3.86008 11.8044C3.79684 11.3339 3.79685 10.7413 3.79688 10.0306V9.15739C3.79685 8.4467 3.79684 7.8541 3.86008 7.38365C3.92685 6.88709 4.07371 6.43877 4.43397 6.0785C4.79423 5.71824 5.24256 5.57138 5.73912 5.50461C6.20957 5.44137 6.80219 5.44138 7.51285 5.44141ZM5.89722 6.68049C5.53221 6.72957 5.376 6.81437 5.27292 6.91745C5.16984 7.02053 5.08503 7.17674 5.03596 7.54174C4.9846 7.92381 4.98333 8.43602 4.98333 9.19852V9.98949C4.98333 10.752 4.9846 11.2642 5.03596 11.6463C5.08503 12.0113 5.16984 12.1675 5.27292 12.2706C5.376 12.3736 5.53221 12.4584 5.89722 12.5075C6.27928 12.5589 6.79148 12.5601 7.55398 12.5601H12.2998C13.0623 12.5601 13.5745 12.5589 13.9566 12.5075C14.3216 12.4584 14.4778 12.3736 14.5809 12.2706C14.6839 12.1675 14.7687 12.0113 14.8179 11.6463C14.8692 11.2642 14.8705 10.752 14.8705 9.98949V9.19852C14.8705 8.43602 14.8692 7.92381 14.8179 7.54174C14.7687 7.17674 14.6839 7.02053 14.5809 6.91745C14.4778 6.81437 14.3216 6.72957 13.9566 6.68049C13.5745 6.62913 13.0623 6.62786 12.2998 6.62786H7.55398C6.79148 6.62786 6.27928 6.62913 5.89722 6.68049Z" fill="white"/>
<path d="M6.36753 14.542C4.9478 14.542 3.79688 15.6929 3.79688 17.1126V17.5081C3.79688 17.8358 4.06247 18.1014 4.3901 18.1014C4.71773 18.1014 4.98333 17.8358 4.98333 17.5081V17.1126C4.98333 16.3482 5.60305 15.7284 6.36753 15.7284H13.4863C14.2507 15.7284 14.8705 16.3482 14.8705 17.1126V17.5081C14.8705 17.8358 15.1361 18.1014 15.4637 18.1014C15.7913 18.1014 16.0569 17.8358 16.0569 17.5081V17.1126C16.0569 15.6929 14.906 14.542 13.4863 14.542H6.36753Z" fill="white"/>
</svg>
