<svg width="25" height="25" viewBox="0 0 25 25" fill="none" xmlns="http://www.w3.org/2000/svg">
<path d="M6.25 19.8156H9.75C10.3023 19.8156 10.75 19.3679 10.75 18.8156V6.31543C10.75 5.76315 10.3023 5.31543 9.75 5.31543H6.25C5.69772 5.31543 5.25 5.76315 5.25 6.31543V18.8156C5.25 19.3679 5.69772 19.8156 6.25 19.8156Z" stroke="black" stroke-width="1.5" stroke-linecap="round" stroke-linejoin="round"/>
<path d="M15.25 10.8156H18.75C19.3023 10.8156 19.75 10.368 19.75 9.81568V6.31543C19.75 5.76315 19.3023 5.31543 18.75 5.31543H15.25C14.6977 5.31543 14.25 5.76315 14.25 6.31543V9.81568C14.25 10.368 14.6977 10.8156 15.25 10.8156Z" stroke="black" stroke-width="1.5" stroke-linecap="round" stroke-linejoin="round"/>
<path d="M15.25 19.8156H18.75C19.3023 19.8156 19.75 19.3679 19.75 18.8156V15.3154C19.75 14.7631 19.3023 14.3154 18.75 14.3154H15.25C14.6977 14.3154 14.25 14.7631 14.25 15.3154V18.8156C14.25 19.3679 14.6977 19.8156 15.25 19.8156Z" stroke="black" stroke-width="1.5" stroke-linecap="round" stroke-linejoin="round"/>
</svg>
