<svg width="21" height="22" viewBox="0 0 21 22" fill="none" xmlns="http://www.w3.org/2000/svg">
<path d="M20.6617 19.505L16.695 15.55C17.9748 13.9195 18.6692 11.9061 18.6667 9.83334C18.6667 7.98738 18.1193 6.18287 17.0937 4.64801C16.0682 3.11316 14.6105 1.91688 12.905 1.21046C11.1996 0.504044 9.32298 0.319213 7.51249 0.679342C5.70201 1.03947 4.03896 1.92838 2.73367 3.23367C1.42838 4.53896 0.53947 6.202 0.179342 8.01249C-0.180787 9.82298 0.00404396 11.6996 0.710462 13.405C1.41688 15.1105 2.61316 16.5682 4.14802 17.5937C5.68287 18.6193 7.48738 19.1667 9.33334 19.1667C11.4061 19.1692 13.4195 18.4748 15.05 17.195L19.005 21.1617C19.1135 21.271 19.2425 21.3578 19.3847 21.417C19.5268 21.4763 19.6793 21.5068 19.8333 21.5068C19.9874 21.5068 20.1398 21.4763 20.282 21.417C20.4242 21.3578 20.5532 21.271 20.6617 21.1617C20.771 21.0532 20.8578 20.9242 20.917 20.782C20.9763 20.6398 21.0068 20.4873 21.0068 20.3333C21.0068 20.1793 20.9763 20.0268 20.917 19.8847C20.8578 19.7425 20.771 19.6135 20.6617 19.505ZM2.33334 9.83334C2.33334 8.44887 2.74388 7.09549 3.51305 5.94435C4.28222 4.7932 5.37547 3.89599 6.65455 3.36618C7.93364 2.83637 9.3411 2.69774 10.699 2.96784C12.0568 3.23794 13.3041 3.90462 14.2831 4.88359C15.2621 5.86256 15.9287 7.10984 16.1988 8.4677C16.4689 9.82557 16.3303 11.233 15.8005 12.5121C15.2707 13.7912 14.3735 14.8845 13.2223 15.6536C12.0712 16.4228 10.7178 16.8333 9.33334 16.8333C7.47682 16.8333 5.69634 16.0958 4.38359 14.7831C3.07084 13.4703 2.33334 11.6899 2.33334 9.83334Z" fill="white"/>
</svg>
