<svg width="25" height="25" viewBox="0 0 25 25" fill="none" xmlns="http://www.w3.org/2000/svg">
<path d="M21.21 20.0293L17.81 16.6393C18.907 15.2417 19.5022 13.5159 19.5 11.7393C19.5 10.157 19.0308 8.61029 18.1518 7.2947C17.2727 5.97911 16.0233 4.95373 14.5615 4.34823C13.0997 3.74272 11.4911 3.5843 9.93928 3.89298C8.38743 4.20166 6.96197 4.96359 5.84315 6.08241C4.72433 7.20123 3.9624 8.62669 3.65372 10.1785C3.34504 11.7304 3.50347 13.3389 4.10897 14.8007C4.71447 16.2625 5.73985 17.512 7.05544 18.391C8.37104 19.2701 9.91775 19.7393 11.5 19.7393C13.2767 19.7415 15.0025 19.1462 16.4 18.0493L19.79 21.4493C19.883 21.543 19.9936 21.6174 20.1154 21.6682C20.2373 21.7189 20.368 21.7451 20.5 21.7451C20.632 21.7451 20.7627 21.7189 20.8846 21.6682C21.0064 21.6174 21.117 21.543 21.21 21.4493C21.3037 21.3563 21.3781 21.2457 21.4289 21.1238C21.4797 21.002 21.5058 20.8713 21.5058 20.7393C21.5058 20.6072 21.4797 20.4765 21.4289 20.3547C21.3781 20.2328 21.3037 20.1222 21.21 20.0293ZM5.5 11.7393C5.5 10.5526 5.8519 9.39253 6.51119 8.40584C7.17047 7.41915 8.10755 6.65011 9.2039 6.19598C10.3003 5.74186 11.5067 5.62304 12.6705 5.85455C13.8344 6.08606 14.9035 6.65751 15.7426 7.49662C16.5818 8.33574 17.1532 9.40483 17.3847 10.5687C17.6162 11.7326 17.4974 12.939 17.0433 14.0354C16.5892 15.1317 15.8201 16.0688 14.8334 16.7281C13.8467 17.3874 12.6867 17.7393 11.5 17.7393C9.90871 17.7393 8.38258 17.1071 7.25736 15.9819C6.13215 14.8567 5.5 13.3306 5.5 11.7393Z" fill="#231F20"/>
</svg>
