<svg width="32" height="32" viewBox="0 0 32 32" fill="none" xmlns="http://www.w3.org/2000/svg">
<rect width="32" height="32" rx="16" fill="#FEF7EE"/>
<path d="M10.4 9.8667V20.4C10.4 20.5768 10.3298 20.7464 10.2047 20.8714C10.0797 20.9965 9.91014 21.0667 9.73333 21.0667C9.55652 21.0667 9.38695 20.9965 9.26193 20.8714C9.1369 20.7464 9.06667 20.5768 9.06667 20.4V12.5334H8V20.4C8.00052 20.8596 8.18331 21.3001 8.50826 21.6251C8.83321 21.95 9.27378 22.1328 9.73333 22.1334H22.2667C22.7262 22.1328 23.1668 21.95 23.4917 21.6251C23.8167 21.3001 23.9995 20.8596 24 20.4V9.8667H10.4ZM22.9333 20.4C22.9331 20.5768 22.8628 20.7462 22.7378 20.8712C22.6129 20.9962 22.4434 21.0665 22.2667 21.0667H11.3333C11.4216 20.8555 11.4669 20.6289 11.4667 20.4V10.9334H22.9333V20.4Z" fill="#ED7D31"/>
<path d="M17.3352 12H12.5352V17.3333H17.3352V12ZM16.2685 16.2667H13.6018V13.0667H16.2685V16.2667Z" fill="#ED7D31"/>
<path d="M21.8651 12H18.3984V13.0667H21.8651V12Z" fill="#ED7D31"/>
<path d="M21.8651 14.1333H18.3984V15.2H21.8651V14.1333Z" fill="#ED7D31"/>
<path d="M21.8651 16.2666H18.3984V17.3333H21.8651V16.2666Z" fill="#ED7D31"/>
</svg>
