<svg width="32" height="32" viewBox="0 0 32 32" fill="none" xmlns="http://www.w3.org/2000/svg">
<rect width="32" height="32" rx="16" fill="#FEF7EE"/>
<path d="M16.374 7.51417C17.3019 7.5 18.2227 7.50708 19.1436 7.5C19.2002 8.58374 19.5898 9.68872 20.3831 10.4537C21.1765 11.24 22.2956 11.6012 23.3864 11.7216V14.5762C22.3664 14.5407 21.3394 14.3282 20.4115 13.8891C20.0077 13.7049 19.6323 13.4712 19.264 13.2303C19.2569 15.2987 19.2711 17.367 19.2498 19.4282C19.1931 20.4198 18.8673 21.4044 18.2936 22.219C17.3657 23.579 15.7578 24.4644 14.1074 24.4927C13.0945 24.5494 12.0815 24.2731 11.2174 23.7631C9.78657 22.9202 8.78074 21.3761 8.63199 19.7186C8.61783 19.3644 8.61074 19.0103 8.62491 18.6632C8.75241 17.3174 9.41824 16.0282 10.4524 15.1499C11.6282 14.1299 13.2715 13.6412 14.8086 13.9316C14.8228 14.9799 14.7803 16.0282 14.7803 17.0765C14.079 16.8499 13.2574 16.9136 12.6411 17.3386C12.1949 17.629 11.8549 18.0753 11.6778 18.5782C11.529 18.9394 11.5715 19.3361 11.5786 19.7186C11.7486 20.8802 12.8678 21.8577 14.0578 21.7515C14.8511 21.7444 15.609 21.284 16.0198 20.6111C16.1544 20.3773 16.3032 20.1365 16.3103 19.8603C16.3811 18.5924 16.3528 17.3315 16.3598 16.0636C16.3669 13.2091 16.3528 10.3616 16.374 7.51417Z" fill="#ED7D31"/>
</svg>
