<svg width="32" height="32" viewBox="0 0 32 32" fill="none" xmlns="http://www.w3.org/2000/svg">
<rect width="32" height="32" rx="16" fill="#FEF7EE"/>
<path d="M8 8H24V24H8V8Z" fill="white" fill-opacity="0.01"/>
<path d="M16.0026 22.6668C19.6845 22.6668 22.6693 19.6821 22.6693 16.0002C22.6693 12.3183 19.6845 9.3335 16.0026 9.3335C12.3207 9.3335 9.33594 12.3183 9.33594 16.0002C9.33594 19.6821 12.3207 22.6668 16.0026 22.6668Z" stroke="#ED7D31" stroke-width="1.33333"/>
<path d="M9.33594 14.9468C10.3409 14.4723 11.0842 14.4062 11.5657 14.7485C12.2881 15.262 12.3787 17.3547 14.0218 16.3545C15.6648 15.3543 13.3182 14.9468 13.8276 13.498C14.337 12.0491 16.0054 13.1746 16.1712 11.5876C16.2818 10.5295 15.0162 10.1247 12.3745 10.3731" stroke="#ED7D31" stroke-width="1.33333"/>
<path d="M20.0017 10.6665C18.0969 12.3294 17.4317 13.3335 18.0059 13.6789C18.8673 14.1971 19.2328 13.4676 20.2839 13.6789C21.3351 13.8903 21.1075 15.3151 20.5546 15.3151C20.0017 15.3151 17.1384 14.9504 17.2826 16.6215C17.4268 18.2925 19.1491 18.5399 19.1491 19.4735C19.1491 20.0959 18.768 21.0485 18.0059 22.3312" stroke="#ED7D31" stroke-width="1.33333" stroke-linecap="round"/>
<path d="M10.0391 18.9756C10.3429 18.8431 10.5713 18.746 10.7242 18.6842C12.0066 18.1661 12.9581 18.044 13.5788 18.3178C14.6763 18.8021 14.2543 19.7802 14.5981 20.1405C14.9418 20.5009 15.8002 20.396 15.8002 21.0815C15.8002 21.5385 15.6467 22.0547 15.3397 22.6302" stroke="#ED7D31" stroke-width="1.33333" stroke-linecap="round"/>
</svg>
