<svg width="32" height="32" viewBox="0 0 32 32" fill="none" xmlns="http://www.w3.org/2000/svg">
<rect width="32" height="32" rx="16" fill="#FEF7EE"/>
<path fill-rule="evenodd" clip-rule="evenodd" d="M12.7018 8.048C13.5551 8.00889 13.8271 8 16 8C18.1733 8 18.4449 8.00933 19.2977 8.048C20.1497 8.08667 20.7316 8.22223 21.2404 8.42C21.7742 8.62095 22.2577 8.93581 22.6573 9.34267C23.0642 9.74225 23.3791 10.2258 23.58 10.7596C23.7777 11.2684 23.9129 11.8502 23.952 12.7018C23.9911 13.5551 24 13.8271 24 16C24 18.1729 23.9907 18.4449 23.952 19.2983C23.9133 20.1497 23.7777 20.7316 23.58 21.2404C23.3756 21.7663 23.1017 22.2129 22.6573 22.6573C22.2577 23.0642 21.7742 23.3791 21.2404 23.58C20.7316 23.7777 20.1497 23.9129 19.2983 23.952C18.4449 23.9911 18.1729 24 16 24C13.8271 24 13.5551 23.9907 12.7018 23.952C11.8502 23.9133 11.2684 23.7777 10.7596 23.58C10.2338 23.3756 9.78711 23.1017 9.34267 22.6573C8.93574 22.2577 8.62086 21.7742 8.42 21.2404C8.22223 20.7316 8.08711 20.1497 8.048 19.2983C8.00889 18.4449 8 18.1733 8 16C8 13.8267 8.00933 13.5551 8.048 12.7022C8.08667 11.8502 8.22223 11.2684 8.42 10.7596C8.62095 10.2258 8.93581 9.74231 9.34267 9.34267C9.74225 8.93574 10.2258 8.62086 10.7596 8.42C11.2684 8.22223 11.8502 8.08711 12.7018 8.048ZM19.2329 9.488C18.3893 9.44977 18.136 9.44133 16 9.44133C13.864 9.44133 13.6107 9.44977 12.7671 9.488C11.9871 9.52356 11.5636 9.65377 11.2818 9.76356C10.9084 9.90844 10.6418 10.0818 10.3618 10.3618C10.0822 10.6418 9.90844 10.9084 9.76356 11.2818C9.65377 11.5636 9.52356 11.9871 9.488 12.7671C9.44977 13.6107 9.44133 13.864 9.44133 16C9.44133 18.136 9.44977 18.3893 9.488 19.2329C9.52356 20.0129 9.65377 20.4364 9.76356 20.7183C9.89172 21.0657 10.0961 21.3801 10.3618 21.6383C10.6199 21.9039 10.9343 22.1083 11.2818 22.2364C11.5636 22.3463 11.9871 22.4764 12.7671 22.512C13.6107 22.5503 13.8636 22.5587 16 22.5587C18.1364 22.5587 18.3893 22.5503 19.2329 22.512C20.0129 22.4764 20.4364 22.3463 20.7183 22.2364C21.0916 22.0916 21.3583 21.9183 21.6383 21.6383C21.9039 21.3801 22.1083 21.0657 22.2364 20.7183C22.3463 20.4364 22.4764 20.0129 22.512 19.2329C22.5503 18.3893 22.5587 18.136 22.5587 16C22.5587 13.864 22.5503 13.6107 22.512 12.7671C22.4764 11.9871 22.3463 11.5636 22.2364 11.2818C22.0916 10.9084 21.9183 10.6418 21.6383 10.3618C21.3583 10.0822 21.0916 9.90844 20.7183 9.76356C20.4364 9.65377 20.0129 9.52356 19.2329 9.488ZM14.9785 18.4661C15.3024 18.6003 15.6495 18.6693 16 18.6693C16.708 18.6693 17.3869 18.3881 17.8875 17.8875C18.3881 17.3869 18.6694 16.7079 18.6694 16C18.6694 15.2921 18.3881 14.6131 17.8875 14.1125C17.3869 13.6119 16.708 13.3307 16 13.3307C15.6495 13.3307 15.3024 13.3997 14.9785 13.5339C14.6546 13.668 14.3604 13.8646 14.1125 14.1125C13.8646 14.3604 13.668 14.6546 13.5339 14.9785C13.3997 15.3023 13.3307 15.6495 13.3307 16C13.3307 16.3505 13.3997 16.6977 13.5339 17.0215C13.668 17.3454 13.8646 17.6396 14.1125 17.8875C14.3604 18.1353 14.6546 18.332 14.9785 18.4661ZM13.0924 13.0924C13.8635 12.3212 14.9095 11.888 16 11.888C17.0906 11.888 18.1365 12.3212 18.9076 13.0924C19.6788 13.8635 20.112 14.9095 20.112 16C20.112 17.0905 19.6788 18.1364 18.9076 18.9076C18.1365 19.6788 17.0906 20.112 16 20.112C14.9095 20.112 13.8635 19.6788 13.0924 18.9076C12.3213 18.1364 11.888 17.0905 11.888 16C11.888 14.9095 12.3213 13.8635 13.0924 13.0924ZM21.0238 12.5006C21.206 12.3183 21.3084 12.0711 21.3084 11.8133C21.3084 11.5555 21.206 11.3083 21.0238 11.126C20.8415 10.9437 20.5943 10.8413 20.3364 10.8413C20.0787 10.8413 19.8314 10.9437 19.6492 11.126C19.4668 11.3083 19.3644 11.5555 19.3644 11.8133C19.3644 12.0711 19.4668 12.3183 19.6492 12.5006C19.8314 12.6829 20.0787 12.7853 20.3364 12.7853C20.5943 12.7853 20.8415 12.6829 21.0238 12.5006Z" fill="#ED7D31"/>
</svg>
